<?xml version="1.0" encoding="utf-8"?>
<!-- Generator: Adobe Illustrator 27.5.0, SVG Export Plug-In . SVG Version: 6.00 Build 0)  -->
<svg version="1.1" xmlns="http://www.w3.org/2000/svg" xmlns:xlink="http://www.w3.org/1999/xlink" x="0px" y="0px"
	 viewBox="0 0 750 500" style="enable-background:new 0 0 750 500;" xml:space="preserve">
<g id="BACKGROUND">
	<rect x="125" style="fill-rule:evenodd;clip-rule:evenodd;fill:#FFFFFF;" width="500" height="500"/>
</g>
<g id="OBJECTS">
	<g>
		<path style="fill-rule:evenodd;clip-rule:evenodd;fill:#DBD7EB;" d="M97.945,323.368c17.97,0,32.67,14.702,32.67,32.67l0,0v0.002
			c0,32.781,26.825,59.607,59.61,59.607h3.289l0,0h348.451h69.578c42.59,0,77.435-34.846,77.435-77.436l0,0
			c0-42.588-34.847-77.434-77.435-77.434h-2.035c-8.548,0-15.541-6.994-15.541-15.54l0,0c0-8.547,6.993-15.54,15.541-15.54h8.547
			c20.777,0,37.777-16.999,37.777-37.777l0,0c0-20.752-16.961-37.737-37.704-37.776c-0.023,0-36.838,0-36.862,0
			c-17.966,0-32.669-14.702-32.669-32.67l0,0l0,0c0-32.786-26.824-59.609-59.609-59.609c-58.172,0-246.435,0-304.606,0
			c-42.59,0-77.437,34.849-77.437,77.436l0,0c0,42.588,34.847,77.436,77.437,77.436l0,0c8.545,0,15.54,6.994,15.54,15.54l0,0
			c0,8.545-6.995,15.54-15.54,15.54H97.945C48.519,247.816,48.515,323.368,97.945,323.368z"/>
		<path style="fill-rule:evenodd;clip-rule:evenodd;fill:#C1BBDA;" d="M148.371,261.535h162.928c3.918,0,7.12,3.205,7.12,7.122
			v105.8c0,3.916-3.202,7.12-7.12,7.12H148.371c-3.915,0-7.12-3.204-7.12-7.12v-105.8
			C141.251,264.74,144.456,261.535,148.371,261.535z"/>
		<g>
			<polygon style="fill-rule:evenodd;clip-rule:evenodd;fill:#EFECF5;" points="301.559,323.79 304.459,323.79 372.888,323.79 
				375.787,323.79 387.423,398.927 361.25,398.927 316.096,398.927 289.924,398.927 			"/>
			<path style="fill-rule:evenodd;clip-rule:evenodd;fill:#FFFFFF;" d="M279.456,397.84h118.432c6.208,0,11.285,5.078,11.285,11.284
				c0,1.934-1.58,3.514-3.513,3.514H271.684c-1.932,0-3.514-1.58-3.514-3.514C268.17,402.918,273.25,397.84,279.456,397.84z"/>
			<path style="fill-rule:evenodd;clip-rule:evenodd;fill:#18233D;" d="M183.62,133.57h306.977c6.371,0,11.583,5.212,11.583,11.584
				v183.382c0,6.37-5.212,11.584-11.583,11.584H183.62c-6.372,0-11.583-5.214-11.583-11.584V145.153
				C172.036,138.782,177.248,133.57,183.62,133.57z"/>
			<path style="fill-rule:evenodd;clip-rule:evenodd;fill:#FFFFFF;" d="M502.18,322.774v22.203c0,6.372-5.212,11.584-11.583,11.584
				H183.62c-6.372,0-11.583-5.212-11.583-11.584v-22.203H502.18z"/>
			<rect x="183.015" y="144.548" style="fill-rule:evenodd;clip-rule:evenodd;fill:#FFFFFF;" width="308.188" height="167.248"/>
			<path style="fill-rule:evenodd;clip-rule:evenodd;fill:#DBD7EB;" d="M355.355,157.231H469.25c3.674,0,6.682,3.006,6.682,6.682
				V274.32c0,3.675-3.008,6.683-6.682,6.683H355.355c-3.676,0-6.682-3.008-6.682-6.683V163.913
				C348.674,160.237,351.68,157.231,355.355,157.231z"/>
			<path style="fill-rule:evenodd;clip-rule:evenodd;fill:#E4E2F1;" d="M337.108,329.855c5.063,0,9.169,4.105,9.169,9.168
				c0,5.064-4.106,9.169-9.169,9.169c-5.063,0-9.168-4.105-9.168-9.169C327.939,333.961,332.045,329.855,337.108,329.855z"/>
			<g>
				<path style="fill-rule:evenodd;clip-rule:evenodd;fill:#DD87A2;" d="M360.288,154.025h113.895c3.676,0,6.684,3.006,6.684,6.682
					v110.407c0,3.676-3.008,6.684-6.684,6.684H360.288c-3.675,0-6.681-3.008-6.681-6.684V160.706
					C353.607,157.031,356.613,154.025,360.288,154.025z"/>
				<path style="fill-rule:evenodd;clip-rule:evenodd;fill:#0F1630;" d="M365.37,158.815h89.78c1.199,0,2.179,0.98,2.179,2.179
					V171.6c0,1.198-0.98,2.179-2.179,2.179h-89.78c-1.198,0-2.177-0.981-2.177-2.179v-10.606
					C363.193,159.794,364.172,158.815,365.37,158.815z"/>
				<path style="fill-rule:evenodd;clip-rule:evenodd;fill:#E74D91;" d="M463.46,158.815h10.398c1.177,0,2.139,0.96,2.139,2.136
					v10.69c0,1.176-0.962,2.137-2.139,2.137H463.46c-1.176,0-2.136-0.961-2.136-2.137v-10.69
					C461.324,159.775,462.284,158.815,463.46,158.815z"/>
				<path style="fill-rule:evenodd;clip-rule:evenodd;fill:#FFFFFF;" d="M367.112,177.99h86.296c2.158,0,3.921,1.763,3.921,3.921
					v78.739c0,2.157-1.763,3.92-3.921,3.92h-86.296c-2.156,0-3.919-1.763-3.919-3.92v-78.739
					C363.193,179.753,364.956,177.99,367.112,177.99z"/>
				<path style="fill-rule:evenodd;clip-rule:evenodd;fill:#F7BD8E;" d="M449.102,183.289c1.131,0,2.051,0.918,2.051,2.051
					c0,1.133-0.92,2.052-2.051,2.052c-1.134,0-2.052-0.919-2.052-2.052C447.05,184.208,447.968,183.289,449.102,183.289
					L449.102,183.289z M434.098,183.289c1.134,0,2.053,0.918,2.053,2.051c0,1.133-0.919,2.052-2.053,2.052
					c-1.13,0-2.051-0.919-2.051-2.052C432.047,184.208,432.968,183.289,434.098,183.289L434.098,183.289z M441.6,183.289
					c1.132,0,2.052,0.918,2.052,2.051c0,1.133-0.92,2.052-2.052,2.052c-1.134,0-2.052-0.919-2.052-2.052
					C439.548,184.208,440.466,183.289,441.6,183.289z"/>
				<g>
					<path style="fill-rule:evenodd;clip-rule:evenodd;fill:#CCC5E1;" d="M376.99,213.359h73.457c0.389,0,0.705,0.316,0.705,0.703
						l0,0c0,0.387-0.316,0.703-0.705,0.703H376.99c-0.387,0-0.703-0.316-0.703-0.703l0,0
						C376.287,213.676,376.603,213.359,376.99,213.359z"/>
					<path style="fill-rule:evenodd;clip-rule:evenodd;fill:#CCC5E1;" d="M370.54,215.235c0.647,0,1.174-0.527,1.174-1.172
						s-0.527-1.172-1.174-1.172c-0.646,0-1.172,0.526-1.172,1.172S369.895,215.235,370.54,215.235z"/>
					<path style="fill-rule:evenodd;clip-rule:evenodd;fill:#CCC5E1;" d="M376.99,219.361h73.457c0.389,0,0.705,0.316,0.705,0.704
						l0,0c0,0.387-0.316,0.703-0.705,0.703H376.99c-0.387,0-0.703-0.316-0.703-0.703l0,0
						C376.287,219.678,376.603,219.361,376.99,219.361z"/>
					<path style="fill-rule:evenodd;clip-rule:evenodd;fill:#CCC5E1;" d="M370.54,221.237c0.647,0,1.174-0.526,1.174-1.172
						c0-0.645-0.527-1.172-1.174-1.172c-0.646,0-1.172,0.527-1.172,1.172C369.369,220.71,369.895,221.237,370.54,221.237z"/>
					<path style="fill-rule:evenodd;clip-rule:evenodd;fill:#CCC5E1;" d="M376.99,225.364h73.457c0.389,0,0.705,0.316,0.705,0.703
						l0,0c0,0.387-0.316,0.703-0.705,0.703H376.99c-0.387,0-0.703-0.316-0.703-0.703l0,0
						C376.287,225.68,376.603,225.364,376.99,225.364z"/>
					<path style="fill-rule:evenodd;clip-rule:evenodd;fill:#CCC5E1;" d="M370.54,227.239c0.647,0,1.174-0.527,1.174-1.172
						c0-0.645-0.527-1.172-1.174-1.172c-0.646,0-1.172,0.527-1.172,1.172C369.369,226.712,369.895,227.239,370.54,227.239z"/>
					<path style="fill-rule:evenodd;clip-rule:evenodd;fill:#CCC5E1;" d="M376.99,231.366h73.457c0.389,0,0.705,0.316,0.705,0.703
						l0,0c0,0.387-0.316,0.704-0.705,0.704H376.99c-0.387,0-0.703-0.316-0.703-0.704l0,0
						C376.287,231.682,376.603,231.366,376.99,231.366z"/>
					<path style="fill-rule:evenodd;clip-rule:evenodd;fill:#CCC5E1;" d="M370.54,233.241c0.647,0,1.174-0.527,1.174-1.172
						c0-0.646-0.527-1.172-1.174-1.172c-0.646,0-1.172,0.526-1.172,1.172C369.369,232.714,369.895,233.241,370.54,233.241z"/>
					<path style="fill-rule:evenodd;clip-rule:evenodd;fill:#CCC5E1;" d="M376.99,237.37h73.457c0.389,0,0.705,0.314,0.705,0.702
						l0,0c0,0.389-0.316,0.705-0.705,0.705H376.99c-0.387,0-0.703-0.316-0.703-0.705l0,0
						C376.287,237.684,376.603,237.37,376.99,237.37z"/>
					<path style="fill-rule:evenodd;clip-rule:evenodd;fill:#CCC5E1;" d="M370.54,239.243c0.647,0,1.174-0.526,1.174-1.172
						c0-0.646-0.527-1.172-1.174-1.172c-0.646,0-1.172,0.527-1.172,1.172C369.369,238.717,369.895,239.243,370.54,239.243z"/>
					<path style="fill-rule:evenodd;clip-rule:evenodd;fill:#CCC5E1;" d="M376.99,243.37h73.457c0.389,0,0.705,0.316,0.705,0.703
						l0,0c0,0.389-0.316,0.705-0.705,0.705H376.99c-0.387,0-0.703-0.316-0.703-0.705l0,0
						C376.287,243.686,376.603,243.37,376.99,243.37z"/>
					<path style="fill-rule:evenodd;clip-rule:evenodd;fill:#CCC5E1;" d="M370.54,245.246c0.647,0,1.174-0.527,1.174-1.172
						c0-0.645-0.527-1.172-1.174-1.172c-0.646,0-1.172,0.526-1.172,1.172C369.369,244.719,369.895,245.246,370.54,245.246z"/>
					<path style="fill-rule:evenodd;clip-rule:evenodd;fill:#CCC5E1;" d="M376.99,249.372h73.457c0.389,0,0.705,0.316,0.705,0.704
						l0,0c0,0.388-0.316,0.703-0.705,0.703H376.99c-0.387,0-0.703-0.315-0.703-0.703l0,0
						C376.287,249.689,376.603,249.372,376.99,249.372z"/>
					<path style="fill-rule:evenodd;clip-rule:evenodd;fill:#CCC5E1;" d="M370.54,251.248c0.647,0,1.174-0.527,1.174-1.171
						c0-0.647-0.527-1.174-1.174-1.174c-0.646,0-1.172,0.527-1.172,1.174C369.369,250.721,369.895,251.248,370.54,251.248z"/>
					<path style="fill-rule:evenodd;clip-rule:evenodd;fill:#CCC5E1;" d="M376.99,255.376h73.457c0.389,0,0.705,0.314,0.705,0.701
						l0,0c0,0.389-0.316,0.704-0.705,0.704H376.99c-0.387,0-0.703-0.316-0.703-0.704l0,0
						C376.287,255.69,376.603,255.376,376.99,255.376z"/>
					<path style="fill-rule:evenodd;clip-rule:evenodd;fill:#CCC5E1;" d="M370.54,257.25c0.647,0,1.174-0.527,1.174-1.171
						c0-0.646-0.527-1.174-1.174-1.174c-0.646,0-1.172,0.527-1.172,1.174C369.369,256.723,369.895,257.25,370.54,257.25z"/>
					<path style="fill-rule:evenodd;clip-rule:evenodd;fill:#CCC5E1;" d="M399.386,205.82h25.881c0.775,0,1.408,0.633,1.408,1.407
						l0,0c0,0.774-0.635,1.407-1.408,1.407h-25.881c-0.772,0-1.407-0.631-1.407-1.407l0,0
						C397.978,206.453,398.613,205.82,399.386,205.82z"/>
					<path style="fill-rule:evenodd;clip-rule:evenodd;fill:#CCC5E1;" d="M431.455,205.82h18.289c0.775,0,1.408,0.633,1.408,1.407
						l0,0c0,0.775-0.633,1.407-1.408,1.407h-18.289c-0.77,0-1.405-0.631-1.405-1.407l0,0
						C430.05,206.453,430.685,205.82,431.455,205.82z"/>
				</g>
				<path style="fill-rule:evenodd;clip-rule:evenodd;fill:#DD87A2;" d="M389.336,203.678L389.336,203.678L389.336,203.678z
					 M386.61,193.306c-0.947-0.947-2.258-1.535-3.706-1.535c-1.445,0-2.755,0.588-3.704,1.535c-0.949,0.949-1.535,2.259-1.535,3.706
					c0,1.447,0.586,2.757,1.535,3.706c0.949,0.948,2.259,1.534,3.704,1.534c1.448,0,2.759-0.586,3.706-1.534
					c0.949-0.949,1.535-2.259,1.535-3.706C388.146,195.565,387.56,194.254,386.61,193.306L386.61,193.306z M385.48,188.113
					c0.726,0.209,1.413,0.504,2.052,0.874c0.657,0.379,1.262,0.837,1.802,1.358c0.105,0.101,0.264,0.117,0.385,0.046l2.435-1.407
					l0.013-0.008c0.14-0.076,0.299-0.088,0.445-0.05c0.149,0.04,0.284,0.137,0.367,0.279l0.01,0.018l1.714,2.968
					c0.081,0.143,0.098,0.307,0.059,0.457c-0.041,0.149-0.138,0.284-0.28,0.368l-0.018,0.01l-2.415,1.394
					c-0.126,0.074-0.185,0.22-0.151,0.355l0,0c0.088,0.359,0.157,0.729,0.202,1.108c0.045,0.368,0.067,0.745,0.067,1.129
					c0,0.384-0.022,0.761-0.067,1.128c-0.045,0.379-0.114,0.749-0.202,1.106c-0.038,0.151,0.037,0.302,0.169,0.366l2.416,1.394
					h-0.001c0.142,0.083,0.239,0.219,0.28,0.368c0.039,0.149,0.023,0.315-0.059,0.458l-1.724,2.985l0,0
					c-0.083,0.143-0.218,0.239-0.367,0.279c-0.149,0.04-0.313,0.024-0.458-0.059l-0.018-0.01l-2.417-1.395
					c-0.128-0.072-0.284-0.05-0.385,0.046c-0.54,0.522-1.145,0.979-1.802,1.359c-0.643,0.371-1.336,0.668-2.065,0.878
					c-0.143,0.041-0.234,0.17-0.234,0.31v2.809c0,0.165-0.068,0.316-0.178,0.425s-0.26,0.177-0.426,0.177h-3.445
					c-0.167,0-0.318-0.067-0.428-0.177c-0.109-0.109-0.177-0.26-0.177-0.425v-2.81c0-0.151-0.105-0.279-0.247-0.313
					c-0.726-0.208-1.414-0.504-2.054-0.873c-0.656-0.379-1.261-0.837-1.802-1.359c-0.11-0.106-0.277-0.117-0.4-0.037l-2.418,1.397
					c-0.145,0.081-0.308,0.098-0.459,0.058c-0.148-0.04-0.283-0.136-0.366-0.279l-0.01-0.018l-1.715-2.967v-0.002
					c-0.082-0.141-0.098-0.307-0.058-0.456c0.04-0.151,0.136-0.284,0.279-0.368l2.433-1.403c0.127-0.074,0.185-0.22,0.153-0.355
					v-0.001c-0.09-0.358-0.158-0.727-0.204-1.106c-0.045-0.368-0.069-0.745-0.069-1.128c0-0.384,0.024-0.761,0.069-1.129
					c0.046-0.379,0.114-0.749,0.204-1.108c0.037-0.148-0.039-0.299-0.17-0.365l-2.415-1.394c-0.143-0.082-0.239-0.217-0.279-0.368
					c-0.04-0.149-0.024-0.315,0.058-0.457l0.01-0.016l1.715-2.969l0,0c0.083-0.143,0.218-0.239,0.366-0.279
					c0.151-0.04,0.314-0.024,0.459,0.058l0,0l2.434,1.407c0.129,0.076,0.289,0.05,0.391-0.053c0.539-0.52,1.142-0.975,1.795-1.352
					c0.645-0.371,1.336-0.668,2.066-0.878c0.142-0.04,0.234-0.168,0.234-0.31v-2.808c0-0.165,0.067-0.316,0.177-0.426
					c0.109-0.109,0.261-0.177,0.428-0.177h3.445c0.166,0,0.316,0.068,0.426,0.177c0.109,0.109,0.178,0.26,0.178,0.426v2.808
					C385.232,187.951,385.337,188.079,385.48,188.113z"/>
				<path style="fill-rule:evenodd;clip-rule:evenodd;fill:#FFFFFF;" d="M464.838,162.474c0.798-0.798,1.847-1.198,2.897-1.198
					h0.005c1.047,0,2.096,0.4,2.893,1.198c0.798,0.796,1.196,1.847,1.197,2.895v0.005c-0.001,0.864-0.272,1.73-0.815,2.452
					l2.495,2.495c0.227,0.228,0.227,0.598,0,0.824c-0.228,0.228-0.596,0.228-0.823,0l-2.495-2.494
					c-0.723,0.543-1.59,0.814-2.454,0.816h-0.006c-1.047-0.002-2.098-0.401-2.893-1.2c-0.799-0.798-1.198-1.847-1.198-2.895v-0.005
					C463.64,164.319,464.041,163.273,464.838,162.474L464.838,162.474z M467.734,162.438c-0.748,0-1.5,0.286-2.073,0.86
					c-0.573,0.573-0.858,1.323-0.858,2.071c0,0.752,0.285,1.502,0.858,2.075c0.573,0.573,1.325,0.861,2.073,0.861
					c0.751,0,1.5-0.288,2.074-0.861c0.572-0.573,0.861-1.323,0.861-2.071c0-0.752-0.289-1.502-0.861-2.075
					C469.234,162.723,468.485,162.438,467.734,162.438z"/>
				<path style="fill-rule:evenodd;clip-rule:evenodd;fill:#63666E;" d="M373.532,168.273h73.458c0.387,0,0.703,0.316,0.703,0.703
					l0,0c0,0.387-0.316,0.704-0.703,0.704h-73.458c-0.387,0-0.704-0.316-0.704-0.704l0,0
					C372.829,168.589,373.145,168.273,373.532,168.273z"/>
				<g>
					<path style="fill-rule:evenodd;clip-rule:evenodd;fill:#938AAD;" d="M398.868,183.289h16.439c0.488,0,0.887,0.472,0.887,1.052
						l0,0c0,0.58-0.398,1.053-0.887,1.053h-16.439c-0.489,0-0.89-0.474-0.89-1.053l0,0
						C397.978,183.761,398.379,183.289,398.868,183.289z"/>
					<path style="fill-rule:evenodd;clip-rule:evenodd;fill:#938AAD;" d="M398.868,187.92h9.311c0.49,0,0.889,0.472,0.889,1.053l0,0
						c0,0.578-0.398,1.052-0.889,1.052h-9.311c-0.489,0-0.89-0.474-0.89-1.052l0,0C397.978,188.392,398.379,187.92,398.868,187.92z"
						/>
					<path style="fill-rule:evenodd;clip-rule:evenodd;fill:#938AAD;" d="M411.345,187.92h1.36c0.488,0,0.888,0.472,0.888,1.053l0,0
						c0,0.578-0.399,1.052-0.888,1.052h-1.36c-0.488,0-0.886-0.474-0.886-1.052l0,0C410.459,188.392,410.856,187.92,411.345,187.92z
						"/>
					<path style="fill-rule:evenodd;clip-rule:evenodd;fill:#938AAD;" d="M398.868,200.692h8.366c0.488,0,0.887-0.474,0.887-1.052
						l0,0c0-0.58-0.398-1.053-0.887-1.053h-8.366c-0.489,0-0.89,0.474-0.89,1.053l0,0
						C397.978,200.218,398.379,200.692,398.868,200.692z"/>
					<path style="fill-rule:evenodd;clip-rule:evenodd;fill:#938AAD;" d="M398.868,196.061h11.559c0.488,0,0.886-0.474,0.886-1.053
						l0,0c0-0.58-0.397-1.052-0.886-1.052h-11.559c-0.489,0-0.89,0.472-0.89,1.052l0,0
						C397.978,195.587,398.379,196.061,398.868,196.061z"/>
					<path style="fill-rule:evenodd;clip-rule:evenodd;fill:#938AAD;" d="M413.872,196.061h1.996c0.49,0,0.887-0.474,0.887-1.053
						l0,0c0-0.58-0.396-1.052-0.887-1.052h-1.996c-0.488,0-0.886,0.472-0.886,1.052l0,0
						C412.986,195.587,413.384,196.061,413.872,196.061z"/>
				</g>
			</g>
		</g>
		<path style="fill-rule:evenodd;clip-rule:evenodd;fill:#DBD7EB;" d="M361.479,42.679h-68.695c-4.991,0-9.072,4.085-9.072,9.074
			v43.335v2.767v23.816c0,0.419,0.239,0.777,0.625,0.936c0.387,0.161,0.809,0.077,1.104-0.22l15.46-15.46h60.579
			c4.989,0,9.072-4.082,9.072-9.072V51.752C370.552,46.762,366.469,42.679,361.479,42.679z"/>
		<path style="fill-rule:evenodd;clip-rule:evenodd;fill:#B8B0D6;" d="M370.552,61.865h-86.84v33.222v2.767v23.816
			c0,0.419,0.239,0.775,0.625,0.936c0.387,0.161,0.809,0.077,1.104-0.22l15.46-15.46h60.579c4.989,0,9.072-4.082,9.072-9.072V61.865
			z"/>
		<g>
			<g>
				<polygon style="fill-rule:evenodd;clip-rule:evenodd;fill:#4F2D4E;" points="648.541,414.414 605.795,246.573 597.127,246.573 
					639.873,414.414 				"/>
				<g>
					<path style="fill-rule:evenodd;clip-rule:evenodd;fill:#4F2D4E;" d="M605.042,265.714h-31.72c-0.768,0-1.396,0.627-1.396,1.397
						v0.002c0,0.768,0.629,1.396,1.396,1.396h31.72c0.771,0,1.398-0.629,1.398-1.396v-0.002
						C606.44,266.341,605.813,265.714,605.042,265.714z"/>
					<path style="fill-rule:evenodd;clip-rule:evenodd;fill:#4F2D4E;" d="M610.222,286.842h-31.719
						c-0.769,0-1.397,0.628-1.397,1.397v0.002c0,0.768,0.628,1.396,1.397,1.396h31.719c0.768,0,1.397-0.629,1.397-1.396v-0.002
						C611.619,287.47,610.989,286.842,610.222,286.842z"/>
					<path style="fill-rule:evenodd;clip-rule:evenodd;fill:#4F2D4E;" d="M615.398,307.968h-31.718c-0.769,0-1.398,0.63-1.398,1.398
						l0,0c0,0.77,0.63,1.398,1.398,1.398h31.718c0.77,0,1.398-0.629,1.398-1.398l0,0
						C616.796,308.598,616.168,307.968,615.398,307.968z"/>
					<path style="fill-rule:evenodd;clip-rule:evenodd;fill:#4F2D4E;" d="M620.577,329.096h-31.718c-0.769,0-1.396,0.63-1.396,1.398
						l0,0c0,0.77,0.628,1.398,1.396,1.398h31.718c0.77,0,1.398-0.629,1.398-1.398l0,0
						C621.976,329.726,621.347,329.096,620.577,329.096z"/>
					<path style="fill-rule:evenodd;clip-rule:evenodd;fill:#4F2D4E;" d="M625.756,350.224h-31.72c-0.767,0-1.396,0.63-1.396,1.398
						l0,0c0,0.77,0.629,1.398,1.396,1.398h31.72c0.769,0,1.396-0.629,1.396-1.398l0,0
						C627.152,350.853,626.524,350.224,625.756,350.224z"/>
					<path style="fill-rule:evenodd;clip-rule:evenodd;fill:#4F2D4E;" d="M630.934,371.352h-31.719c-0.769,0-1.397,0.63-1.397,1.398
						l0,0c0,0.77,0.628,1.397,1.397,1.397h31.719c0.769,0,1.399-0.628,1.399-1.397l0,0
						C632.333,371.981,631.703,371.352,630.934,371.352z"/>
					<path style="fill-rule:evenodd;clip-rule:evenodd;fill:#4F2D4E;" d="M636.112,392.479h-31.719c-0.77,0-1.398,0.63-1.398,1.398
						l0,0c0,0.768,0.628,1.397,1.398,1.397h31.719c0.768,0,1.397-0.63,1.397-1.397l0,0
						C637.51,393.109,636.88,392.479,636.112,392.479z"/>
				</g>
				<polygon style="fill-rule:evenodd;clip-rule:evenodd;fill:#4F2D4E;" points="612.518,414.414 569.771,246.573 561.106,246.573 
					603.851,414.414 				"/>
			</g>
			<polygon style="fill-rule:evenodd;clip-rule:evenodd;fill:#603460;" points="502.048,414.414 544.794,246.573 553.46,246.573 
				510.716,414.414 			"/>
			<g>
				<path style="fill-rule:evenodd;clip-rule:evenodd;fill:#4F2D4E;" d="M545.547,265.714h31.718c0.77,0,1.398,0.627,1.398,1.397
					v0.002c0,0.768-0.628,1.396-1.398,1.396h-31.718c-0.771,0-1.4-0.629-1.4-1.396v-0.002
					C544.146,266.341,544.776,265.714,545.547,265.714z"/>
				<path style="fill-rule:evenodd;clip-rule:evenodd;fill:#4F2D4E;" d="M540.367,286.842h31.719c0.77,0,1.398,0.628,1.398,1.397
					v0.002c0,0.768-0.628,1.396-1.398,1.396h-31.719c-0.768,0-1.398-0.629-1.398-1.396v-0.002
					C538.97,287.47,539.6,286.842,540.367,286.842z"/>
				<path style="fill-rule:evenodd;clip-rule:evenodd;fill:#4F2D4E;" d="M535.19,307.968h31.719c0.768,0,1.397,0.63,1.397,1.398l0,0
					c0,0.77-0.63,1.398-1.397,1.398H535.19c-0.771,0-1.398-0.629-1.398-1.398l0,0C533.792,308.598,534.42,307.968,535.19,307.968z"
					/>
				<path style="fill-rule:evenodd;clip-rule:evenodd;fill:#4F2D4E;" d="M530.01,329.096h31.72c0.771,0,1.398,0.63,1.398,1.398l0,0
					c0,0.77-0.628,1.398-1.398,1.398h-31.72c-0.768,0-1.396-0.629-1.396-1.398l0,0C528.613,329.726,529.242,329.096,530.01,329.096z
					"/>
				<path style="fill-rule:evenodd;clip-rule:evenodd;fill:#4F2D4E;" d="M524.833,350.224h31.72c0.768,0,1.397,0.63,1.397,1.398l0,0
					c0,0.77-0.629,1.398-1.397,1.398h-31.72c-0.771,0-1.398-0.629-1.398-1.398l0,0C523.435,350.853,524.063,350.224,524.833,350.224
					z"/>
				<path style="fill-rule:evenodd;clip-rule:evenodd;fill:#4F2D4E;" d="M519.653,371.352h31.72c0.771,0,1.396,0.63,1.396,1.398l0,0
					c0,0.77-0.626,1.397-1.396,1.397h-31.72c-0.768,0-1.397-0.628-1.397-1.397l0,0C518.257,371.981,518.886,371.352,519.653,371.352
					z"/>
				<path style="fill-rule:evenodd;clip-rule:evenodd;fill:#4F2D4E;" d="M514.477,392.479h31.719c0.768,0,1.397,0.63,1.397,1.398
					l0,0c0,0.768-0.63,1.397-1.397,1.397h-31.719c-0.77,0-1.397-0.63-1.397-1.397l0,0
					C513.079,393.109,513.706,392.479,514.477,392.479z"/>
			</g>
			<polygon style="fill-rule:evenodd;clip-rule:evenodd;fill:#81577F;" points="538.071,414.414 580.816,246.573 589.482,246.573 
				546.738,414.414 			"/>
			<path style="fill-rule:evenodd;clip-rule:evenodd;fill:#4F2D4E;" d="M569.167,241.013h39.771c2.735,0,4.972,2.237,4.972,4.972
				l0,0c0,2.734-2.236,4.973-4.972,4.973h-39.771c-2.732,0-4.97-2.238-4.97-4.973l0,0
				C564.197,243.249,566.435,241.013,569.167,241.013z"/>
			<path style="fill-rule:evenodd;clip-rule:evenodd;fill:#9B6C96;" d="M541.826,241.013h42.256c2.735,0,4.974,2.237,4.974,4.972
				l0,0c0,2.734-2.238,4.973-4.974,4.973h-42.256c-2.734,0-4.971-2.238-4.971-4.973l0,0
				C536.855,243.249,539.092,241.013,541.826,241.013z"/>
		</g>
		<path style="fill-rule:evenodd;clip-rule:evenodd;fill:#03061E;" d="M644.011,412.638H124.029
			c-6.259,0-11.385,5.125-11.385,11.385v0.001c0,6.26,5.122,11.385,11.385,11.385h38.412c3.478,0,6.325,2.847,6.325,6.325l0,0
			c0,3.478-2.847,6.324-6.325,6.324h-14.053c-4.348,0-7.907,3.559-7.907,7.905v0.002c0,4.347,3.559,7.906,7.907,7.906h470.007
			c4.349,0,7.907-3.559,7.907-7.906v-0.002c0-4.349-3.559-7.905-7.907-7.905h-11.069c-3.477,0-6.323-2.847-6.323-6.324l0,0
			c0-3.479,2.846-6.325,6.323-6.325h36.685c6.263,0,11.386-5.124,11.386-11.385v-0.001
			C655.396,417.76,650.269,412.638,644.011,412.638L644.011,412.638z M638.081,463.871c-4.173,0-7.589-3.417-7.589-7.59v-0.633
			c0-4.175,3.416-7.591,7.589-7.591l0,0c4.175,0,7.592,3.416,7.592,7.591v0.633C645.673,460.456,642.256,463.871,638.081,463.871
			L638.081,463.871z"/>
		<path style="fill-rule:evenodd;clip-rule:evenodd;fill:#DCD7EB;" d="M689.994,155.271L689.994,155.271L689.994,155.271z
			 M685.708,138.951c-1.491-1.493-3.554-2.417-5.83-2.417c-2.277,0-4.339,0.923-5.831,2.417c-1.491,1.492-2.416,3.553-2.416,5.83
			c0,2.275,0.925,4.337,2.416,5.83c1.492,1.492,3.554,2.415,5.831,2.415c2.276,0,4.339-0.923,5.83-2.415
			c1.491-1.493,2.415-3.555,2.415-5.83C688.123,142.504,687.199,140.442,685.708,138.951L685.708,138.951z M683.928,130.777
			c1.141,0.33,2.225,0.795,3.231,1.376c1.03,0.596,1.984,1.315,2.836,2.137c0.166,0.159,0.414,0.183,0.604,0.072l3.831-2.213
			l0.022-0.011c0.219-0.119,0.469-0.141,0.697-0.08c0.237,0.063,0.447,0.215,0.577,0.441l0.017,0.026l2.694,4.667
			c0.132,0.225,0.157,0.485,0.093,0.723c-0.065,0.234-0.215,0.446-0.44,0.577l-0.025,0.016l-3.801,2.195
			c-0.199,0.114-0.291,0.345-0.24,0.557l0,0c0.141,0.566,0.248,1.148,0.32,1.742c0.07,0.582,0.107,1.174,0.107,1.777
			c0,0.602-0.037,1.196-0.107,1.776c-0.072,0.596-0.18,1.177-0.32,1.742c-0.058,0.235,0.059,0.471,0.268,0.575l3.799,2.193l0,0
			c0.225,0.13,0.375,0.342,0.44,0.578c0.065,0.236,0.039,0.496-0.093,0.721l-2.711,4.695l0,0c-0.13,0.225-0.34,0.378-0.577,0.44
			c-0.234,0.064-0.495,0.038-0.72-0.093l-0.027-0.014l-3.806-2.197c-0.197-0.114-0.443-0.077-0.602,0.072
			c-0.852,0.822-1.804,1.542-2.836,2.137c-1.012,0.586-2.103,1.053-3.254,1.382c-0.221,0.064-0.367,0.268-0.367,0.488v4.419
			c0,0.26-0.107,0.497-0.277,0.669c-0.174,0.172-0.41,0.279-0.672,0.279h-5.422c-0.261,0-0.496-0.107-0.67-0.279
			c-0.172-0.172-0.277-0.409-0.277-0.669v-4.419c0-0.239-0.168-0.441-0.391-0.493c-1.143-0.331-2.226-0.794-3.23-1.378
			c-1.033-0.596-1.985-1.315-2.836-2.137c-0.175-0.165-0.436-0.184-0.63-0.056l-3.806,2.196c-0.225,0.13-0.484,0.156-0.719,0.092
			c-0.238-0.063-0.448-0.215-0.578-0.44l-0.016-0.027l-2.698-4.669l0.003-0.001c-0.131-0.223-0.157-0.483-0.093-0.718
			c0.063-0.238,0.214-0.448,0.437-0.578l3.83-2.21c0.2-0.116,0.291-0.345,0.239-0.559l0,0c-0.14-0.565-0.247-1.146-0.319-1.742
			c-0.071-0.579-0.107-1.173-0.107-1.776c0-0.604,0.036-1.198,0.107-1.777c0.072-0.596,0.18-1.177,0.319-1.742
			c0.058-0.234-0.058-0.472-0.267-0.573l-3.803-2.195c-0.223-0.128-0.374-0.341-0.437-0.577c-0.065-0.236-0.038-0.495,0.093-0.719
			l0.014-0.029l2.697-4.67v0.002c0.13-0.227,0.34-0.379,0.578-0.441c0.234-0.063,0.494-0.039,0.719,0.091h-0.001l3.833,2.213
			c0.203,0.119,0.456,0.077,0.613-0.083c0.851-0.817,1.798-1.534,2.826-2.126c1.012-0.586,2.102-1.054,3.251-1.383
			c0.224-0.063,0.368-0.267,0.37-0.486v-4.42c0-0.26,0.105-0.496,0.277-0.67c0.174-0.172,0.409-0.278,0.67-0.278h5.422
			c0.262,0,0.498,0.106,0.672,0.278c0.17,0.174,0.277,0.41,0.277,0.67v4.42C683.537,130.524,683.704,130.725,683.928,130.777z"/>
		<path style="fill-rule:evenodd;clip-rule:evenodd;fill:#DCD7EB;" d="M637.211,69.369c-1.869-1.869-4.106-3.377-6.598-4.409
			c-2.396-0.992-5.019-1.54-7.764-1.54c-2.743,0-5.366,0.548-7.763,1.54c-2.492,1.032-4.731,2.54-6.598,4.409
			c-1.867,1.868-3.377,4.106-4.407,6.596c-0.993,2.397-1.542,5.02-1.542,7.764c0,2.744,0.549,5.368,1.542,7.764
			c1.03,2.491,2.54,4.729,4.407,6.596c1.867,1.868,4.105,3.377,6.595,4.408c2.396,0.994,5.02,1.541,7.766,1.541
			c2.745,0,5.369-0.547,7.764-1.54c2.49-1.032,4.729-2.54,6.598-4.409c1.869-1.867,3.375-4.105,4.407-6.596
			c0.992-2.396,1.54-5.02,1.54-7.764c0-2.744-0.548-5.368-1.54-7.764C640.586,73.475,639.08,71.236,637.211,69.369L637.211,69.369z
			 M629.899,66.695c2.248,0.931,4.276,2.301,5.98,4.003c1.703,1.704,3.074,3.733,4.004,5.979c0.898,2.168,1.394,4.549,1.394,7.051
			c0,2.502-0.497,4.883-1.394,7.051c-0.931,2.248-2.301,4.277-4.004,5.979c-1.704,1.702-3.732,3.073-5.98,4.005
			c-2.166,0.897-4.549,1.392-7.05,1.392c-2.499,0-4.879-0.495-7.046-1.392c-2.252-0.932-4.281-2.303-5.983-4.005
			c-1.703-1.702-3.073-3.731-4.005-5.979c-0.897-2.168-1.393-4.549-1.393-7.051c0-2.501,0.496-4.883,1.393-7.051
			c0.932-2.246,2.302-4.276,4.005-5.979c1.702-1.702,3.731-3.072,5.979-4.003c2.168-0.899,4.548-1.394,7.05-1.394
			C625.351,65.301,627.733,65.796,629.899,66.695L629.899,66.695z M632.146,51.751c1.27,0.366,2.521,0.814,3.741,1.333
			c1.239,0.528,2.44,1.129,3.594,1.797c1.174,0.678,2.306,1.429,3.388,2.245c1.089,0.821,2.121,1.702,3.093,2.64
			c0.347,0.331,0.775,0.525,1.217,0.578c0.45,0.056,0.917-0.036,1.323-0.271c2.982-1.721,6.118-3.425,9.04-5.22
			c0.142-0.074,0.289-0.119,0.438-0.135c0.169-0.02,0.337-0.005,0.5,0.039c0.163,0.045,0.32,0.12,0.455,0.223
			c0.129,0.098,0.243,0.225,0.33,0.374c2.174,3.289,4.356,7.539,6.369,11.028c0.087,0.149,0.139,0.31,0.159,0.469
			c0.021,0.167,0.008,0.343-0.038,0.514c-0.044,0.166-0.121,0.321-0.224,0.456c-0.098,0.13-0.225,0.244-0.374,0.329
			c-2.684,1.774-6.139,3.548-8.984,5.191c-0.417,0.239-0.723,0.597-0.896,1.005c-0.061,0.143-0.106,0.292-0.135,0.443l-0.184,0.063
			l0.206,0.838c0.163,0.66,0.307,1.318,0.427,1.973c0.117,0.638,0.219,1.307,0.304,2.004c0.082,0.679,0.145,1.354,0.185,2.02
			c0.038,0.65,0.059,1.333,0.059,2.043c0,0.71-0.021,1.391-0.059,2.04c-0.04,0.668-0.103,1.342-0.185,2.023
			c-0.085,0.697-0.188,1.363-0.304,2.003c-0.12,0.657-0.264,1.316-0.427,1.975c-0.119,0.49-0.062,0.979,0.135,1.402
			c0.194,0.422,0.529,0.777,0.96,0.997l7.958,4.594l-0.003,0.003l0.942,0.544c0.149,0.087,0.276,0.201,0.374,0.33
			c0.103,0.135,0.18,0.291,0.224,0.458c0.046,0.17,0.059,0.345,0.038,0.514c-0.021,0.159-0.072,0.318-0.159,0.467l-5.89,10.206
			l-0.003-0.001l-0.477,0.823c-0.086,0.149-0.201,0.276-0.33,0.376c-0.135,0.103-0.292,0.178-0.455,0.222
			c-0.171,0.046-0.346,0.06-0.513,0.039c-0.159-0.021-0.316-0.074-0.466-0.159c-2.85-1.79-6.065-3.498-9.003-5.196
			c-0.421-0.239-0.88-0.323-1.317-0.27c-0.451,0.055-0.879,0.252-1.215,0.575l-0.005,0.003c-0.972,0.938-2.007,1.821-3.095,2.642
			c-1.08,0.814-2.212,1.564-3.385,2.241c-1.16,0.671-2.369,1.277-3.619,1.807c-1.225,0.52-2.498,0.973-3.809,1.349
			c-0.461,0.132-0.846,0.406-1.116,0.765c-0.272,0.361-0.429,0.812-0.429,1.284l-0.003,10.381c0,0.175-0.034,0.341-0.098,0.488
			c-0.063,0.154-0.161,0.297-0.283,0.419c-0.118,0.121-0.26,0.217-0.419,0.283c-0.147,0.063-0.313,0.097-0.488,0.097H616.48
			c-0.176,0-0.34-0.034-0.487-0.097c-0.157-0.066-0.302-0.162-0.421-0.281c-0.12-0.124-0.219-0.267-0.283-0.421
			c-0.061-0.148-0.096-0.313-0.096-0.488v-10.382c0-0.493-0.174-0.951-0.461-1.316c-0.294-0.373-0.707-0.644-1.177-0.756
			c-1.272-0.366-2.521-0.813-3.741-1.333c-1.241-0.528-2.442-1.129-3.598-1.797c-1.172-0.677-2.302-1.427-3.385-2.243
			c-1.088-0.82-2.122-1.704-3.094-2.64c-0.361-0.347-0.815-0.541-1.28-0.584c-0.474-0.043-0.958,0.072-1.367,0.342l-8.887,5.132
			c-0.148,0.086-0.308,0.137-0.47,0.158c-0.169,0.021-0.343,0.008-0.513-0.039c-0.167-0.043-0.322-0.119-0.458-0.222
			c-0.13-0.1-0.242-0.225-0.329-0.376c-2.111-3.682-4.255-7.348-6.369-11.029c-0.086-0.148-0.137-0.309-0.159-0.469
			c-0.02-0.167-0.007-0.342,0.038-0.512c0.045-0.167,0.119-0.323,0.222-0.458c0.097-0.131,0.222-0.242,0.366-0.328l8.993-5.191
			c0.416-0.239,0.722-0.598,0.896-1.005c0.047-0.111,0.085-0.225,0.112-0.342l0.236-0.047l-0.238-0.954
			c-0.162-0.658-0.305-1.318-0.425-1.974c-0.117-0.639-0.221-1.309-0.304-2.005c-0.084-0.679-0.145-1.355-0.185-2.021
			c-0.04-0.65-0.06-1.331-0.06-2.041c0-0.71,0.02-1.391,0.06-2.041c0.04-0.665,0.101-1.339,0.185-2.018
			c0.087-0.705,0.186-1.378,0.304-2.01c0.12-0.655,0.262-1.313,0.425-1.97c0.122-0.492,0.062-0.984-0.135-1.405
			c-0.197-0.42-0.529-0.774-0.957-0.994l-8.903-5.142c-0.147-0.082-0.272-0.194-0.371-0.328c-0.101-0.13-0.177-0.289-0.222-0.458
			c-0.045-0.17-0.058-0.344-0.038-0.511c0.022-0.162,0.073-0.323,0.159-0.47c2.174-3.234,4.352-7.554,6.369-11.03
			c0.087-0.149,0.199-0.276,0.329-0.374c0.134-0.103,0.291-0.178,0.458-0.223c0.169-0.045,0.344-0.06,0.511-0.039
			c0.157,0.019,0.317,0.074,0.471,0.16l8.996,5.193c0.423,0.248,0.899,0.331,1.35,0.27c0.452-0.061,0.881-0.27,1.215-0.601
			c0.979-0.941,2.008-1.819,3.08-2.627c1.069-0.804,2.195-1.551,3.373-2.232c1.163-0.671,2.37-1.275,3.62-1.806
			c1.227-0.522,2.498-0.973,3.809-1.349c0.462-0.13,0.845-0.406,1.114-0.763c0.272-0.363,0.431-0.813,0.431-1.285l0.003-10.382
			c0-0.175,0.035-0.34,0.096-0.488c0.064-0.152,0.163-0.295,0.284-0.417c0.118-0.122,0.263-0.218,0.42-0.284
			c0.147-0.061,0.312-0.096,0.487-0.096h12.738c0.176,0,0.341,0.035,0.488,0.096c0.159,0.066,0.301,0.162,0.421,0.283
			c0.233,0.234,0.379,0.557,0.379,0.907v10.382c0,0.496,0.172,0.954,0.458,1.317C631.262,51.367,631.674,51.64,632.146,51.751
			L632.146,51.751z M636.623,51.357c1.311,0.557,2.579,1.193,3.799,1.898c1.246,0.721,2.441,1.513,3.579,2.37
			c1.141,0.859,2.23,1.791,3.262,2.786c0.04,0.039,0.09,0.061,0.144,0.066c0.055,0.008,0.108-0.003,0.154-0.029
			c3.024-1.745,6.055-3.486,9.075-5.241c0.357-0.194,0.743-0.312,1.134-0.356c0.402-0.045,0.809-0.014,1.194,0.088
			c0.396,0.108,0.775,0.292,1.109,0.548c0.323,0.246,0.603,0.555,0.815,0.926c2.193,3.549,4.274,7.396,6.369,11.026
			c0.214,0.37,0.344,0.769,0.395,1.174c0.053,0.419,0.024,0.84-0.082,1.235c-0.106,0.396-0.292,0.775-0.546,1.111
			c-0.247,0.321-0.557,0.6-0.928,0.813c-2.891,1.787-6.031,3.484-8.99,5.193c-0.047,0.025-0.082,0.069-0.102,0.117
			c-0.022,0.05-0.027,0.106-0.013,0.157l0.205,0.838l-0.013,0.005c0.09,0.406,0.174,0.821,0.251,1.243
			c0.133,0.719,0.242,1.427,0.327,2.121c0.082,0.689,0.147,1.398,0.191,2.131c0.043,0.733,0.065,1.451,0.065,2.151
			s-0.023,1.416-0.065,2.15c-0.044,0.732-0.109,1.443-0.191,2.132c-0.085,0.693-0.195,1.401-0.327,2.119
			c-0.132,0.716-0.281,1.412-0.448,2.087c-0.015,0.055-0.007,0.113,0.018,0.163c0.025,0.054,0.064,0.098,0.111,0.12
			c3.303,1.767,6.658,3.841,9.925,5.727l-0.118,0.146l0.102,0.125c0.254,0.334,0.44,0.713,0.546,1.109
			c0.106,0.397,0.135,0.817,0.082,1.235c-0.052,0.405-0.182,0.805-0.396,1.172l-6.844,11.855l-0.127-0.076
			c-0.067,0.061-0.14,0.121-0.212,0.175c-0.334,0.255-0.713,0.44-1.109,0.547c-0.394,0.106-0.815,0.135-1.233,0.082
			c-0.392-0.051-0.78-0.175-1.14-0.376c-2.995-1.589-6.078-3.508-9.034-5.215c-0.043-0.025-0.096-0.034-0.15-0.027
			c-0.055,0.007-0.109,0.031-0.147,0.067c-1.031,0.996-2.122,1.925-3.26,2.785c-1.137,0.856-2.332,1.647-3.576,2.368
			c-1.23,0.71-2.507,1.349-3.825,1.909c-1.309,0.556-2.654,1.034-4.028,1.429c-0.055,0.015-0.102,0.046-0.132,0.088
			c-0.035,0.045-0.055,0.1-0.052,0.152v10.381c0,0.424-0.086,0.833-0.242,1.207c-0.162,0.391-0.398,0.74-0.692,1.029
			c-0.292,0.291-0.639,0.527-1.024,0.688c-0.375,0.157-0.783,0.244-1.209,0.244H616.48c-0.424,0-0.835-0.087-1.209-0.244
			c-0.385-0.161-0.733-0.396-1.029-0.688c-0.289-0.289-0.524-0.639-0.687-1.029c-0.157-0.374-0.244-0.783-0.244-1.207v-10.382
			c0-0.061-0.018-0.116-0.049-0.156c-0.031-0.04-0.083-0.074-0.141-0.086l-0.042-0.015c-1.383-0.4-2.719-0.875-4.003-1.421
			c-1.308-0.559-2.577-1.193-3.801-1.9c-1.246-0.721-2.439-1.512-3.576-2.368c-1.14-0.861-2.231-1.792-3.265-2.788
			c-0.041-0.042-0.096-0.066-0.147-0.069c-0.055-0.004-0.112,0.008-0.16,0.04l-8.99,5.189c-0.371,0.213-0.768,0.342-1.168,0.394
			c-0.417,0.053-0.838,0.022-1.233-0.082c-0.397-0.107-0.776-0.291-1.11-0.547c-0.315-0.238-0.588-0.541-0.8-0.899
			c-2.364-3.797-4.594-7.958-6.847-11.858l0.122-0.072c-0.022-0.1-0.042-0.199-0.055-0.3c-0.052-0.417-0.022-0.837,0.083-1.232
			c0.106-0.396,0.289-0.777,0.546-1.109c0.244-0.323,0.556-0.602,0.925-0.814l8.992-5.191c0.045-0.026,0.08-0.069,0.102-0.117
			c0.023-0.051,0.027-0.109,0.015-0.162l-0.233-0.951l0.013-0.003c-0.08-0.37-0.155-0.747-0.227-1.127
			c-0.131-0.718-0.24-1.427-0.324-2.121c-0.083-0.69-0.149-1.402-0.192-2.134c-0.045-0.734-0.067-1.45-0.067-2.15
			s0.023-1.416,0.067-2.15c0.043-0.732,0.109-1.443,0.192-2.137c0.084-0.688,0.193-1.396,0.324-2.121
			c0.132-0.713,0.283-1.407,0.448-2.08c0.015-0.055,0.007-0.114-0.018-0.167c-0.023-0.05-0.065-0.091-0.114-0.117l-8.98-5.184
			c-0.372-0.215-0.681-0.493-0.923-0.815c-0.256-0.339-0.44-0.716-0.545-1.109c-0.105-0.394-0.135-0.814-0.083-1.231
			c0.051-0.394,0.177-0.782,0.379-1.146c2.142-3.965,4.596-7.961,6.859-11.884l0.129,0.077c0.067-0.063,0.138-0.122,0.212-0.176
			c0.334-0.255,0.713-0.44,1.11-0.548c0.394-0.104,0.815-0.135,1.231-0.082c0.408,0.051,0.805,0.18,1.169,0.388l0.665,0.382
			l-0.002,0.008l8.34,4.813c0.05,0.029,0.107,0.039,0.159,0.032c0.055-0.008,0.106-0.032,0.142-0.071l0.023-0.022
			c1.021-0.982,2.108-1.911,3.257-2.773c1.14-0.859,2.33-1.647,3.559-2.359c1.228-0.71,2.506-1.349,3.823-1.908
			c1.31-0.557,2.655-1.036,4.028-1.431c0.055-0.014,0.102-0.046,0.132-0.086c0.033-0.047,0.055-0.101,0.05-0.153V39.295
			c0-0.424,0.087-0.833,0.244-1.208c0.162-0.39,0.397-0.74,0.69-1.029c0.292-0.291,0.641-0.527,1.025-0.687
			c0.374-0.158,0.785-0.243,1.209-0.243h12.738c0.426,0,0.834,0.085,1.209,0.243c0.386,0.16,0.733,0.396,1.029,0.687
			c0.573,0.575,0.93,1.367,0.93,2.237v10.382c0,0.06,0.022,0.114,0.052,0.158c0.032,0.042,0.084,0.072,0.14,0.087l0.04,0.015
			C634.003,50.334,635.339,50.812,636.623,51.357z"/>
		<path style="fill-rule:evenodd;clip-rule:evenodd;fill:#DFDAEC;" d="M197.581,144.548h59.689
			c3.835,9.839,7.932,23.888,7.865,26.472c0.374,4.298-2.161,10.641-7.794,17.87c-1.913,9.341-10.074,25.353-10.604,28.275
			c-0.244,1.345-4.259,2.979-9.92,4.073c0.164,0.729,0.392,1.779,0.62,2.049c0,0,27.088-12.606,41.023-15.03
			c13.935-2.423,23.276,4.236,28.476,9.896c5.196,5.66,39.205,57.729,50.249,76.212c0.7,1.299,0.716,2.012-0.692,3.066
			c-9.06,4.114-11.845,9.284-17.07,14.363h-17.004c-13.45-21.748-21.944-53.718-26.695-60.368c-5.273-7.387-7.17-6.8-11.108-5.691
			c-3.939,1.111-36.516,22.789-41.953,22.789c-5.437,0-0.279,0-17.065,0c-16.785,0-26.15-19.426-27.766-27.908
			c-1.386-7.275,0.633-20.322,1.237-23.883c-0.373-0.204-0.716-0.409-1.028-0.612c-0.577-0.957-0.96-2.06-0.768-2.418l0,0
			c-4.348-1.916-8.271-7.105-8.82-11.839c-1.363-11.764-1.521-34.072,4.594-49.056C194.5,149.249,196.038,146.525,197.581,144.548z"
			/>
		<path style="fill-rule:evenodd;clip-rule:evenodd;fill:#CBD5E9;" d="M301.559,323.79h2.9h20.537v50.398
			c0,4.064-3.324,7.389-7.386,7.389h-25.001L301.559,323.79z"/>
		<path style="fill-rule:evenodd;clip-rule:evenodd;fill:#EBEFF8;" d="M324.996,356.561H183.62c-6.372,0-11.583-5.212-11.583-11.584
			v-22.203h152.96V356.561z"/>
		<path style="fill-rule:evenodd;clip-rule:evenodd;fill:#EBEFF8;" d="M324.996,311.796H183.015v-34.22H317.61
			c4.063,0,7.386,3.326,7.386,7.388V311.796z"/>
		<g>
			<path style="fill-rule:evenodd;clip-rule:evenodd;fill:#FAE3EA;" d="M148.371,268.523h162.928c3.918,0,7.12,3.205,7.12,7.121
				v93.058c0,3.916-3.204,7.12-7.12,7.12H148.371c-3.915,0-7.12-3.204-7.12-7.12v-93.058
				C141.251,271.728,144.456,268.523,148.371,268.523z"/>
			<path style="fill-rule:evenodd;clip-rule:evenodd;fill:#9B6C96;" d="M173.144,303.634c1.281,0,2.502,0.504,3.407,1.41
				c0.906,0.905,1.41,2.126,1.41,3.407c0,1.279-0.504,2.5-1.41,3.405l-0.006,0.004c-0.902,0.903-2.121,1.406-3.401,1.406
				c-1.281,0-2.499-0.504-3.404-1.41c-0.906-0.905-1.413-2.126-1.413-3.405c0-1.281,0.507-2.5,1.413-3.406
				C170.644,304.138,171.863,303.634,173.144,303.634L173.144,303.634z M154.749,291.257c-0.801,0.857-2.148,0.907-3.006,0.107
				c-0.862-0.801-0.912-2.151-0.109-3.01c2.755-2.95,6.097-5.309,9.8-6.916c3.701-1.605,7.677-2.428,11.71-2.428
				c4.035,0,8.011,0.822,11.712,2.428c3.703,1.607,7.043,3.966,9.798,6.916c0.803,0.858,0.754,2.209-0.106,3.01
				c-0.861,0.8-2.206,0.75-3.009-0.107c-2.354-2.521-5.209-4.542-8.372-5.915c-3.167-1.376-6.571-2.068-10.023-2.068
				c-3.451,0-6.853,0.692-10.021,2.068C159.958,286.715,157.105,288.736,154.749,291.257L154.749,291.257z M160.35,296.49
				c1.638-1.754,3.621-3.16,5.822-4.117c2.203-0.955,4.573-1.435,6.972-1.435c2.402,0,4.771,0.48,6.974,1.435
				c2.202,0.957,4.186,2.363,5.824,4.117c0.8,0.857,2.148,0.905,3.008,0.105c0.859-0.801,0.91-2.149,0.107-3.009
				c-2.039-2.182-4.512-3.928-7.251-5.115c-2.736-1.189-5.678-1.799-8.661-1.799s-5.923,0.61-8.661,1.799
				c-2.738,1.188-5.212,2.934-7.248,5.115c-0.803,0.859-0.755,2.208,0.106,3.009C158.2,297.396,159.547,297.348,160.35,296.49
				L160.35,296.49z M166.763,302.481c-0.803,0.858-2.15,0.908-3.009,0.107c-0.861-0.8-0.909-2.15-0.107-3.01
				c1.217-1.304,2.694-2.344,4.329-3.054c1.633-0.71,3.39-1.076,5.169-1.076c1.782,0,3.536,0.366,5.171,1.076
				c1.635,0.71,3.112,1.75,4.329,3.054c0.803,0.859,0.751,2.21-0.107,3.01c-0.859,0.801-2.208,0.751-3.008-0.107
				c-0.815-0.874-1.805-1.575-2.903-2.053c-1.099-0.477-2.282-0.714-3.482-0.714c-1.198,0-2.379,0.237-3.479,0.714
				C168.568,300.906,167.579,301.607,166.763,302.481z"/>
			<path style="fill-rule:evenodd;clip-rule:evenodd;fill:#ED806A;" d="M244.698,278.67h17.509c0.92,0,1.67,0.748,1.67,1.667l0,0
				c0,0.918-0.75,1.666-1.67,1.666h-17.509c-0.919,0-1.669-0.748-1.669-1.666l0,0C243.029,279.418,243.779,278.67,244.698,278.67
				L244.698,278.67z M244.698,313.914h23.068c0.918,0,1.668-0.749,1.668-1.667l0,0c0-0.919-0.75-1.667-1.668-1.667h-23.068
				c-0.919,0-1.669,0.748-1.669,1.667l0,0C243.029,313.165,243.779,313.914,244.698,313.914L244.698,313.914z M244.698,306.577
				h10.392c0.92,0,1.669-0.751,1.669-1.668l0,0c0-0.919-0.748-1.669-1.669-1.669h-10.392c-0.919,0-1.669,0.75-1.669,1.669l0,0
				C243.029,305.826,243.779,306.577,244.698,306.577L244.698,306.577z M272.909,291.567h3.752c0.918,0,1.667-0.749,1.667-1.667l0,0
				c0-0.919-0.748-1.667-1.667-1.667h-3.752c-0.917,0-1.667,0.748-1.667,1.667l0,0C271.242,290.818,271.992,291.567,272.909,291.567
				L272.909,291.567z M244.698,291.567h21.735c0.917,0,1.667-0.749,1.667-1.667l0,0c0-0.919-0.75-1.667-1.667-1.667h-21.735
				c-0.919,0-1.669,0.748-1.669,1.667l0,0C243.029,290.818,243.779,291.567,244.698,291.567L244.698,291.567z M244.698,298.905
				h15.731c0.919,0,1.668-0.748,1.668-1.665l0,0c0-0.92-0.75-1.67-1.668-1.67h-15.731c-0.919,0-1.669,0.75-1.669,1.67l0,0
				C243.029,298.157,243.779,298.905,244.698,298.905L244.698,298.905z M268.156,278.67h2.558c0.918,0,1.667,0.748,1.667,1.667l0,0
				c0,0.918-0.749,1.666-1.667,1.666h-2.558c-0.918,0-1.668-0.748-1.668-1.666l0,0C266.487,279.418,267.237,278.67,268.156,278.67z"
				/>
			<path style="fill-rule:evenodd;clip-rule:evenodd;fill:#ED806A;" d="M203.653,313.914h17.512c0.918,0,1.667-0.749,1.667-1.667
				l0,0c0-0.919-0.748-1.667-1.667-1.667h-17.512c-0.917,0-1.667,0.748-1.667,1.667l0,0
				C201.986,313.165,202.736,313.914,203.653,313.914L203.653,313.914z M203.653,278.67h23.071c0.918,0,1.666,0.748,1.666,1.667l0,0
				c0,0.918-0.748,1.668-1.666,1.668h-23.071c-0.917,0-1.667-0.75-1.667-1.668l0,0C201.986,279.418,202.736,278.67,203.653,278.67
				L203.653,278.67z M203.653,286.008h10.395c0.918,0,1.667,0.75,1.667,1.667l0,0c0,0.918-0.749,1.668-1.667,1.668h-10.395
				c-0.917,0-1.667-0.75-1.667-1.668l0,0C201.986,286.758,202.736,286.008,203.653,286.008L203.653,286.008z M231.865,301.017h3.754
				c0.919,0,1.667,0.748,1.667,1.668l0,0c0,0.917-0.748,1.667-1.667,1.667h-3.754c-0.918,0-1.667-0.75-1.667-1.667l0,0
				C230.198,301.765,230.946,301.017,231.865,301.017L231.865,301.017z M203.653,301.017h21.735c0.919,0,1.668,0.748,1.668,1.668
				l0,0c0,0.917-0.749,1.667-1.668,1.667h-21.735c-0.917,0-1.667-0.75-1.667-1.667l0,0
				C201.986,301.765,202.736,301.017,203.653,301.017L203.653,301.017z M203.653,293.681h15.732c0.918,0,1.667,0.748,1.667,1.665
				l0,0c0,0.918-0.749,1.668-1.667,1.668h-15.732c-0.917,0-1.667-0.75-1.667-1.668l0,0
				C201.986,294.429,202.736,293.681,203.653,293.681L203.653,293.681z M227.112,313.914h2.559c0.918,0,1.667-0.749,1.667-1.667l0,0
				c0-0.919-0.749-1.667-1.667-1.667h-2.559c-0.919,0-1.667,0.748-1.667,1.667l0,0C225.445,313.165,226.193,313.914,227.112,313.914
				z"/>
			<path style="fill-rule:evenodd;clip-rule:evenodd;fill:#FFFFFF;" d="M155.51,323.4h35.27c2.169,0,3.945,1.775,3.945,3.946v33.542
				c0,2.171-1.776,3.947-3.945,3.947h-35.27c-2.171,0-3.945-1.776-3.945-3.947v-33.542C151.565,325.176,153.339,323.4,155.51,323.4z
				"/>
			<g>
				<path style="fill-rule:evenodd;clip-rule:evenodd;fill:#DBD7EB;" d="M173.144,360.794c9.185,0,16.677-7.492,16.677-16.677
					c0-9.186-7.492-16.679-16.677-16.679c-9.184,0-16.677,7.492-16.677,16.679C156.467,353.302,163.96,360.794,173.144,360.794z"/>
				<path style="fill-rule:evenodd;clip-rule:evenodd;fill:#FFFFFF;" d="M181.77,355.049c-2.374,1.874-5.368,2.993-8.626,2.993
					c-3.256,0-6.252-1.119-8.626-2.993c0.151-4.616,3.973-8.348,8.626-8.348l0,0C177.797,346.701,181.619,350.433,181.77,355.049
					L181.77,355.049z M173.144,332.249c3.423,0,6.196,2.775,6.196,6.196c0,3.422-2.773,6.197-6.196,6.197
					c-3.422,0-6.195-2.775-6.195-6.197C166.949,335.024,169.722,332.249,173.144,332.249z"/>
			</g>
			<path style="fill-rule:evenodd;clip-rule:evenodd;fill:#DD87A2;" d="M203.653,361.74h42.67c0.918,0,1.667-0.749,1.667-1.667l0,0
				c0-0.919-0.748-1.669-1.667-1.669h-42.67c-0.915,0-1.667,0.75-1.667,1.669l0,0C201.986,360.991,202.736,361.74,203.653,361.74
				L203.653,361.74z M203.653,326.496h48.229c0.919,0,1.667,0.748,1.667,1.667l0,0c0,0.918-0.749,1.666-1.667,1.666h-48.229
				c-0.915,0-1.667-0.748-1.667-1.666l0,0C201.986,327.244,202.736,326.496,203.653,326.496L203.653,326.496z M203.653,333.833
				h35.553c0.918,0,1.667,0.751,1.667,1.668l0,0c0,0.918-0.749,1.668-1.667,1.668h-35.553c-0.915,0-1.667-0.75-1.667-1.668l0,0
				C201.986,334.584,202.736,333.833,203.653,333.833L203.653,333.833z M257.023,348.841h3.754c0.917,0,1.667,0.75,1.667,1.669l0,0
				c0,0.918-0.751,1.666-1.667,1.666h-3.754c-0.918,0-1.667-0.748-1.667-1.666l0,0C255.356,349.591,256.105,348.841,257.023,348.841
				L257.023,348.841z M203.653,348.841h46.893c0.919,0,1.667,0.75,1.667,1.669l0,0c0,0.918-0.748,1.666-1.667,1.666h-46.893
				c-0.915,0-1.667-0.748-1.667-1.666l0,0C201.986,349.591,202.736,348.841,203.653,348.841L203.653,348.841z M203.653,341.505
				h40.891c0.918,0,1.667,0.748,1.667,1.665l0,0c0,0.92-0.749,1.67-1.667,1.67h-40.891c-0.915,0-1.667-0.75-1.667-1.67l0,0
				C201.986,342.253,202.736,341.505,203.653,341.505L203.653,341.505z M252.27,361.74h2.558c0.919,0,1.667-0.749,1.667-1.667l0,0
				c0-0.919-0.75-1.669-1.667-1.669h-2.558c-0.918,0-1.668,0.75-1.668,1.669l0,0C250.602,360.991,251.352,361.74,252.27,361.74z"/>
		</g>
		<path style="fill-rule:evenodd;clip-rule:evenodd;fill:#E1B4C6;" d="M224.18,268.523h85.223c1.047,0,2.044,0.229,2.941,0.641
			l0.021,0.514c0.779,1.587,1.583,3.255,2.42,5.022c0.594,1.256,1.172,2.47,1.737,3.647v25.487
			c-1.673-3.215-3.258-6.542-4.756-9.892c-0.719,21.648,0.262,49.414-0.115,62.377c-0.098,1.336-0.608,1.52-2.009,1.642
			c-0.318,3.069-0.62,6.316-0.713,8.342c-0.088,1.962,0.403,5.7,1.026,9.497c-0.182,0.015-0.368,0.021-0.552,0.021h-19.995
			c0.05-2.478,0.609-7.019,1.069-8.143c0.594-1.439,2.442-4.713,2.754-4.742c0.309-0.027,1.323,0.315,1.358,0.326
			c0.96-1.137,2.335-2.918,3.359-4.87c-6.412,1.487-11.134,4.583-21.392,3.595c-1.31,0.076-2.164-0.562-2.302-1.546
			c0.189-40.643,12.715-51.66,12.097-82.158c-0.088-4.437-0.787-9.759-6.516-9.759c-3.169,0-38.568,0-38.568,0
			c-5.437,0-0.278,0-17.064,0L224.18,268.523L224.18,268.523z M294.552,363.309l-0.687,0.787
			C294.048,363.894,294.282,363.627,294.552,363.309z"/>
		<g>
			<g>
				<path style="fill-rule:evenodd;clip-rule:evenodd;fill:#F4AD85;" d="M359.84,295.022c1.92,2.931,4.595,6.948,6.161,9.03
					c2.645,3.514,13.91,12.496,14.631,13.092c0.723,0.596,4.131,0.412,4.83,0.19c0.698-0.224-3.793,6.201-3.793,6.201l-6.289,2.503
					l-19.773-11.381l-1.605-2.787c0,0,0.49-5.777-1.21-9.555c-0.181-0.401-1.045-1.683-2.439-3.643
					C353.205,297.558,356.455,296.301,359.84,295.022z"/>
				<path style="fill-rule:evenodd;clip-rule:evenodd;fill:#EF8871;" d="M352.874,297.691c1.497,2.009,2.434,3.255,2.595,3.438
					c1.156,1.333,0.092,1.285,0.21,1.814c0.119,0.53,0.954,4.968,1.216,6.056c0.263,1.088,17.088,12.386,18.096,12.874
					c1.008,0.488,2.424-0.011,3.787-1.192l3.627-3.149c1.212,0.059,2.635-0.061,3.058-0.197c0.698-0.224-3.793,6.201-3.793,6.201
					l-6.289,2.503l-19.773-11.381l-1.605-2.787c0,0,0.49-5.777-1.21-9.555c-0.18-0.401-1.045-1.683-2.439-3.643L352.874,297.691z"/>
				<path style="fill-rule:evenodd;clip-rule:evenodd;fill:#03061E;" d="M359.4,321.848l-0.264,1.518l12.468,14.359l1.511-1.314
					c0,0-5.332-6.142-6.645-7.652c-1.313-1.513-1.615-4.207-0.941-5.253C366.205,322.463,359.4,321.848,359.4,321.848z"/>
				<path style="fill-rule:evenodd;clip-rule:evenodd;fill:#03061E;" d="M384.055,317.517c0,0,0.113,0.734-0.199,1.313
					c-0.314,0.579-4.012,4.247-5.087,4.826c-1.079,0.58-2.604,1.291-6.678-1.289c-4.074-2.579-17.697-10.79-18.053-11.065
					l0.029-1.015c0,0-0.947,0.361-1.153,0.565c-0.206,0.202,0.401,3.602,0.822,4.968c0.422,1.368,4.022,6.809,4.936,7.392
					c0.915,0.583,4.313-0.434,11.031,2.604c6.716,3.038,8.196,6.443,12.468,2.733c4.272-3.709,8.634-7.497,10.114-8.783
					c1.482-1.286,1.061-3.063,0.466-3.515c-0.595-0.451-3.487-0.082-7.053,0.363C385.698,316.613,384.754,316.796,384.055,317.517z"
					/>
			</g>
			<g>
				<path style="fill-rule:evenodd;clip-rule:evenodd;fill:#F4AD85;" d="M316.354,354.455c-0.419,3.791-0.959,9.016-1.089,11.849
					c-0.215,4.783,3.016,20.127,3.208,21.129c0.193,1.001,3.181,3.21,3.921,3.507c0.742,0.296-7.479,2.574-7.479,2.574l-7.014-2.258
					l-8.71-23.255l0.585-3.453c0,0,4.415-4.509,5.607-8.855c0.126-0.464,0.289-2.139,0.479-4.749
					C309.029,351.983,312.627,353.182,316.354,354.455z"/>
				<path style="fill-rule:evenodd;clip-rule:evenodd;fill:#EF8871;" d="M308.66,351.866c-0.138,2.725-0.213,4.419-0.207,4.684
					c0.046,1.921-0.813,1.142-1.081,1.669c-0.267,0.526-2.643,4.831-3.176,5.925c-0.533,1.095,5.758,22.239,6.266,23.349
					c0.507,1.108,2.043,1.672,4.004,1.622l5.227-0.129c0.978,0.89,2.253,1.774,2.703,1.954c0.742,0.296-7.479,2.574-7.479,2.574
					l-7.014-2.258l-8.71-23.255l0.585-3.453c0,0,4.415-4.509,5.607-8.855c0.127-0.464,0.289-2.139,0.479-4.749L308.66,351.866z"/>
				<path style="fill-rule:evenodd;clip-rule:evenodd;fill:#03061E;" d="M297.393,376.665l-1.273,1.089l0.514,20.694l2.179-0.055
					c0,0-0.22-8.851-0.275-11.028c-0.053-2.179,1.561-4.65,2.852-5.06C302.677,381.897,297.393,376.665,297.393,376.665z"/>
				<path style="fill-rule:evenodd;clip-rule:evenodd;fill:#03061E;" d="M321.086,390.117c0,0-0.413,0.694-1.078,0.962
					c-0.662,0.271-6.307,0.785-7.614,0.525c-1.304-0.26-3.078-0.721-4.709-5.71c-1.633-4.987-7.375-21.322-7.484-21.799l0.729-0.832
					c0,0-1.047-0.354-1.36-0.326c-0.313,0.029-2.16,3.303-2.754,4.742c-0.594,1.44-1.342,8.5-0.979,9.623
					c0.363,1.122,3.921,2.625,7.454,9.831c3.533,7.205,2.412,11.088,8.571,10.937c6.156-0.153,12.441-0.31,14.577-0.362
					c2.136-0.054,3.012-1.836,2.826-2.627c-0.186-0.792-2.871-2.486-6.169-4.585C323.095,390.496,322.173,389.995,321.086,390.117z"
					/>
			</g>
			<g>
				<path style="fill-rule:evenodd;clip-rule:evenodd;fill:#081033;" d="M261.071,105.321c-0.093-0.201-0.005-0.438,0.194-0.532
					c0.201-0.091,0.439-0.005,0.531,0.196c0.02,0.043,7.208,15.158-3.656,24.653c-0.167,0.145-0.419,0.127-0.565-0.039
					c-0.145-0.167-0.127-0.419,0.039-0.564C268.022,119.94,261.09,105.362,261.071,105.321z"/>
				<path style="fill-rule:evenodd;clip-rule:evenodd;fill:#081033;" d="M219.414,86.619l-7.569,6.433c0,0,2.451,6.026,1.182,13.353
					c-1.266,7.325-31.371,44.947,14.537,50.66c45.909,5.713,23.439-21.253,23.439-21.253s15.767-2.946,10.954-25.847
					C257.142,87.063,219.414,86.619,219.414,86.619z"/>
				<path style="fill-rule:evenodd;clip-rule:evenodd;fill:#03061E;" d="M251.371,136.279c-0.231-0.302-0.369-0.467-0.369-0.467
					s0.565-0.106,1.451-0.434c1.495-1.292,3.042-2.836,4.588-4.671c7.513-8.918,2.58-23.153,2.58-23.153l-3.404-1.514
					c0,0-6.725-3.435-8.536-4.312c-1.814-0.875-23.878-2.333-31.594,8.546c-7.717,10.878-2.987,28.705-2.987,28.705
					s25.916,2.5,27.403,2.583C241.612,141.627,246.066,140.523,251.371,136.279z"/>
				<path style="fill-rule:evenodd;clip-rule:evenodd;fill:#081033;" d="M214.742,102.803c0.141-0.17,0.392-0.192,0.562-0.051
					c0.17,0.141,0.194,0.393,0.051,0.563c-0.051,0.064-18.947,22.486-8.356,38.345c0.122,0.183,0.074,0.432-0.109,0.554
					c-0.185,0.124-0.434,0.074-0.556-0.109C195.409,125.742,214.686,102.869,214.742,102.803z"/>
			</g>
			<path style="fill-rule:evenodd;clip-rule:evenodd;fill:#03061E;" d="M244.581,260.059l3.027,8.467c0,0,35.399,0,38.566,0
				c5.729,0,6.429,5.322,6.516,9.759c0.62,30.498-11.907,41.516-12.096,82.158c0.138,0.984,0.991,1.622,2.301,1.546
				c13.001,1.251,17.11-4.056,27.034-4.335h1.622c1.227,0.034,2.543,0.142,3.97,0.344c1.753-0.132,2.36-0.204,2.469-1.677
				c0.421-14.519-0.86-47.614,0.453-69.877c2.396-40.62-7.21-51.837-26.141-60.348c-9.604-4.316-26.652-6.015-33.009-7.279
				c-2.386-0.475-4.411-8.311-4.411-8.311l-13.472,5.413l-8.143,3.91l-26.088-5.182l-3.009,1.167c0,0,1.558,11.071,7.129,19.795
				C216.873,244.333,244.581,260.059,244.581,260.059z"/>
			<path style="fill-rule:evenodd;clip-rule:evenodd;fill:#081033;" d="M318.076,349.882c0.039-13.486-0.514-34.594-0.072-52.462
				c-1.084-1.378-2.51-2.863-3.759-3.103c-2.418-0.466-6.603,21.476-8.462,35.051C304.212,340.84,309.283,348.726,318.076,349.882z"
				/>
			<path style="fill-rule:evenodd;clip-rule:evenodd;fill:#0D1947;" d="M204.169,215.814c0,0.005-3.009,16.324-1.394,24.803
				c1.615,8.481,10.98,27.908,27.766,27.908s11.628,0,17.065,0c5.437,0,38.014-21.677,41.951-22.789
				c3.94-1.109,5.835-1.696,11.108,5.691c5.275,7.385,15.165,45.976,31.321,67.14c0.645,0.754,1.708,0.833,2.773,0.065
				c13.599-6.937,13.451-15.193,26.677-21.2c1.406-1.055,1.392-1.768,0.692-3.066c-11.044-18.483-45.053-70.552-50.251-76.212
				c-5.197-5.66-14.54-12.319-28.474-9.896c-13.935,2.423-41.023,15.03-41.023,15.03c-0.369-0.436-0.732-2.884-0.835-2.78
				C235.272,221.021,211.933,222.841,204.169,215.814z"/>
			<path style="fill-rule:evenodd;clip-rule:evenodd;fill:#081033;" d="M318.352,226.926c-3.086-4.438-5.396-7.601-6.473-8.772
				c-5.197-5.662-14.54-12.319-28.474-9.896c-13.935,2.423-41.024,15.028-41.024,15.028c-0.368-0.434-0.73-2.882-0.833-2.778
				c-1.821,0.149-5.081,0.408-8.979,0.528l-2.886,4.893l1.723,2.125l1.599,1.972c0,0,8.444-6.871,18.361-6.871
				c9.917,0,53.241,0,57.955,0C314.01,223.154,318.304,226.886,318.352,226.926z"/>
			<path style="fill-rule:evenodd;clip-rule:evenodd;fill:#081033;" d="M204.169,215.814c0,0.005-3.009,16.324-1.394,24.803
				c1.615,8.481,10.98,27.908,27.766,27.908s11.628,0,17.065,0c5.437,0,38.014-21.677,41.951-22.789
				c3.94-1.109,5.835-1.696,11.108,5.691c5.275,7.385,15.165,45.976,31.321,67.14c0.645,0.754,1.708,0.833,2.773,0.065
				c4.802-2.45,7.89-5.064,10.458-7.687c-6.638-2.543-12.521-11.779-24.096-36.246c-16.364-34.586-21.385-33.376-21.478-36.817
				c-0.093-3.439,1.21-12.458-0.371-10.504c-1.581,1.951-26.313,14.782-43.234,19.538c-16.924,4.756-26.123-9.405-24.449-14.426
				c1.673-5.02,10.79-9.204,10.79-9.204c-0.369-0.436-0.732-2.884-0.835-2.78C235.272,221.021,211.933,222.841,204.169,215.814z"/>
			<path style="fill-rule:evenodd;clip-rule:evenodd;fill:#DBD7EB;" d="M348.375,307.534c0.469-0.522,0.939-1.042,1.419-1.558
				c-13.356-11.537-21.985-29.667-28.55-43.46c-2.717-5.712-5.085-10.689-7.319-14.22l-1.426-2.256
				c-8.552-13.581-12.467-19.794-24.843-16.418c-3.594,0.979-9.4,4.436-16.308,8.547c-17.14,10.201-41.238,24.547-52.414,13.653
				c-10.938-10.66-9.952-24.885-8.282-32.707c-0.693-0.209-1.36-0.435-1.997-0.684c-1.788,8.213-2.937,23.445,8.815,34.898
				c12.326,12.014,37.235-2.813,54.949-13.356c6.771-4.031,12.463-7.418,15.789-8.326c10.874-2.966,14.528,2.834,22.512,15.511
				l1.426,2.257c2.161,3.417,4.505,8.344,7.197,13.997C325.988,277.381,334.717,295.718,348.375,307.534z"/>
			<path style="fill-rule:evenodd;clip-rule:evenodd;fill:#938AAD;" d="M300.024,230.444c-1.009-0.605-2.067-1.055-3.208-1.342
				c-0.864,0.519-1.92,1.123-3.144,1.792c2.372,0.076,4.356,0.798,6.2,2.126C299.931,232.132,299.989,231.249,300.024,230.444
				L300.024,230.444z M256.037,246.919c-14.109,7.435-29.001,12.799-37.102,4.904c-10.938-10.66-9.952-24.885-8.282-32.707
				c-0.693-0.209-1.36-0.435-1.997-0.684c-1.788,8.213-2.937,23.445,8.815,34.898c11.091,10.809,32.371-0.112,49.43-10.092
				c-3.767,1.448-7.471,2.727-10.861,3.679L256.037,246.919z"/>
			<path style="fill-rule:evenodd;clip-rule:evenodd;fill:#603460;" d="M257.492,135.137c6.747,5.931,8.533,7.72,14.053,14.846
				c8.757,11.313,24.15,31.067,25.442,31.851c1.813,1.102,2.733,1.088,4.883-0.339c0.182-0.121,0.466-0.413,0.832-0.84v16.907
				c-3.905,1.133-8.825,0.663-12.078-1.388c-4.384-2.762-24.209-18.965-24.209-18.965S251.037,143.76,257.492,135.137z"/>
			<path style="fill-rule:evenodd;clip-rule:evenodd;fill:#482749;" d="M258.122,135.715c6.478,5.673,7.955,7.267,13.276,14.088
				c0.231,6.386,5.068,25.096,5.259,27.854c0.191,2.759,12.658,15.985,19.389,17.255c2.206,0.417,4.48-0.391,6.657-1.866v4.516
				c-3.905,1.133-8.825,0.663-12.078-1.388c-4.384-2.762-24.209-18.965-24.209-18.965S251.667,144.338,258.122,135.715z"/>
			<path style="fill-rule:evenodd;clip-rule:evenodd;fill:#FFFFFF;" d="M237.408,131.421c0.735,0.063,1.48,0.124,2.24,0.185
				l6.026,1.525c0.013-0.038,0.8-0.674,0.8-0.674l0.294,0.051c2.632,0.892,9.116,1.061,10.725,2.629
				c3.863,3.765,12.689,32.101,12.587,35.883c0.376,4.298-2.16,10.641-7.793,17.87c-1.912,9.341-10.076,25.353-10.604,28.275
				c-0.546,3.017-20.076,7.49-34.587,4.073c-6.079-1.432-11.344-3.304-14.111-5.116c-0.577-0.957-0.96-2.06-0.768-2.418
				c0.323-0.604,11.33-22.795,10.344-27.604c-0.594-2.894-4.444-9.98-7.418-15.169c-1.111-8.525-2.786-15.262-2.328-20.585
				c0.05-0.587,0.101-1.161,0.154-1.716l5.723-4.294l-2.252-3.349c0,0,0.189-0.183,0.572-0.504l0,0l0.003-0.003
				c2.492-2.122,17.25-8.138,17.25-8.138l7.828-0.147C234.042,131.828,235.809,131.577,237.408,131.421z"/>
			<path style="fill-rule:evenodd;clip-rule:evenodd;fill:#E4E2F1;" d="M269.121,165.967c0.62,2.442,0.979,4.273,0.958,5.053
				c0.228,2.601-0.612,5.951-2.558,9.793c-3.38-0.003-7.544,0.299-12.661,1.095c-22.197,3.452-32.31,4.686-34.036,8.632
				c-1.434,3.276-0.088,22.17,3.324,31.754c-2.412-0.185-4.792-0.525-7.052-1.057c-6.079-1.432-11.344-3.304-14.111-5.116
				c-0.577-0.957-0.96-2.06-0.768-2.418c0.323-0.604,11.33-22.795,10.344-27.604c-0.594-2.894-4.444-9.98-7.418-15.169
				c-1.111-8.525-2.786-15.262-2.328-20.585c0.05-0.587,0.101-1.161,0.154-1.716l5.723-4.294l-2.252-3.349
				c0,0,0.189-0.183,0.572-0.504l0,0l0.003-0.003c2.492-2.122,17.25-8.138,17.25-8.138l7.218-0.136l1.798,1.365
				c0,0-13.567,10.603-14.429,11.466c-0.864,0.862,5.302,23.431,6.658,26.514C226.703,174.259,250.97,175.626,269.121,165.967z"/>
			<path style="fill-rule:evenodd;clip-rule:evenodd;fill:#603460;" d="M251.302,133.38c0.063,0.072,0.125,0.137,0.188,0.189
				c-0.12,2.709-0.971,5.829-2.525,7.578c-4.674,5.258-13.422,4.276-19.238,1.744c-3.611-1.574-7.025-4.061-9.157-7.422
				c-0.252-0.396-0.516-0.846-0.699-1.284c2.521-1.079,4.395-1.844,4.395-1.844l7.828-0.147c1.95-0.366,3.716-0.617,5.315-0.772
				c0.735,0.063,1.48,0.124,2.24,0.185l6.026,1.525c0.013-0.038,0.8-0.674,0.8-0.674l0.294,0.051
				C247.837,132.87,249.544,133.114,251.302,133.38z"/>
			<path style="fill-rule:evenodd;clip-rule:evenodd;fill:#482749;" d="M224.944,140.121c-1.716-1.296-3.23-2.849-4.376-4.652
				c-0.252-0.396-0.516-0.846-0.699-1.284l0.116-0.052l0.117-0.05l0.029-0.011l0.088-0.038l0.114-0.048l0.114-0.048l0.005-0.003
				l0.107-0.045l0.113-0.048l0.093-0.039l0.016-0.006l0.109-0.047l0.109-0.046l0.071-0.03l0.035-0.015l0.107-0.045l0.102-0.044
				l0.048-0.021l0.054-0.022l0.103-0.043l0.1-0.042l0.029-0.011l0.071-0.03l0.096-0.04l0.096-0.04l0.006-0.003l0.087-0.037
				l0.093-0.04l0.083-0.034l0.01-0.003l0.088-0.038l0.088-0.037l0.061-0.026l0.026-0.01l0.085-0.035l0.083-0.036l0.04-0.018
				l0.042-0.016l0.079-0.034l0.079-0.032l0.022-0.01l0.055-0.021l0.074-0.032l0.071-0.03l0.01-0.003l0.061-0.025l0.07-0.029
				l0.061-0.025l0.005-0.001l0.066-0.027l0.061-0.026l0.045-0.018l0.016-0.008l0.06-0.024l0.056-0.022l0.03-0.013l0.024-0.01
				l0.054-0.022l0.048-0.021l0.019-0.006l0.031-0.013l0.046-0.02l0.042-0.018l0.006-0.003l0.035-0.015l0.04-0.016l0.036-0.015h0.001
				l0.034-0.014l0.032-0.013l0.024-0.01l0.006-0.003l0.026-0.011l0.026-0.009l0.013-0.005l0.01-0.005l0.019-0.008l0.018-0.006
				l0.006-0.003l0.008-0.003l0.013-0.005l0.01-0.003v-0.002l0.006-0.002l0.003-0.001l0.001-0.002l7.218-0.136l1.798,1.365
				C233.281,133.57,228.888,137.003,224.944,140.121z"/>
			<path style="fill-rule:evenodd;clip-rule:evenodd;fill:#EB6B5D;" d="M227.913,112.4l0.085,5.088c0,0-0.27,10.414-0.312,11.995
				c-0.026,1.002-1.297,2.078-3.398,2.849l-0.024,0.009c0,0,0.101,0.215,0.329,0.575c5.415,8.534,24.2,10.951,21.905-0.445
				l-0.026-0.015c-1.402,0-2.778-0.756-3.682-1.795c-1.69-1.943-1.393-10.402,0.404-12.57
				C244.993,115.923,227.913,112.4,227.913,112.4z"/>
			<path style="fill-rule:evenodd;clip-rule:evenodd;fill:#603460;" d="M215.895,157.977c-2.755,19.824-7.067,36.113-6.853,37.706
				c0.289,2.176,0.896,2.913,3.444,3.72c2.548,0.808,35.183,3.098,35.912,3.574c0.729,0.477,0.931,8.321,0.371,9.271
				c-0.559,0.951-39.932,3.179-44.895,2.017c-4.963-1.161-9.857-7.07-10.477-12.399c-1.362-11.764-1.519-34.072,4.595-49.056
				C206.354,132.322,217.571,139.445,215.895,157.977z"/>
			<path style="fill-rule:evenodd;clip-rule:evenodd;fill:#482749;" d="M215.895,157.977c-2.755,19.824-7.067,36.113-6.853,37.706
				c0.289,2.176,0.896,2.913,3.444,3.72c0.284,0.09,0.942,0.199,1.89,0.321h-0.002c-7.449-0.772-11.415-2.592-10.92-3.084
				c0.491-0.495,1.479-0.74,1.85-1.172c0.369-0.43,5.119-23.614,6.969-39.276c1.807-15.291-4.449-15.561-4.747-15.565
				C212.826,139.049,216.961,146.211,215.895,157.977L215.895,157.977z M243.471,202.389c2.852,0.268,4.756,0.477,4.926,0.587
				c0.729,0.477,0.931,8.321,0.371,9.271c-0.559,0.951-39.932,3.179-44.895,2.017c-2.516-0.589-5.015-2.398-6.948-4.732
				c6.853,5.983,34.583,1.596,40.872-0.44C241.377,207.935,242.857,204.843,243.471,202.389z"/>
			<path style="fill-rule:evenodd;clip-rule:evenodd;fill:#EA745D;" d="M258.372,100.916c0.145,0.032,0.286,0.067,0.425,0.109
				l0.005,0.002l0,0c2.586,0.764,4.394,3.234,4.22,6.039c-0.204,3.26-3.012,5.737-6.272,5.535c-3.26-0.203-5.739-3.011-5.537-6.271
				c0.119-1.895,1.116-3.526,2.571-4.52c-0.291,1.729-0.189,3.905,2.013,4.302l0.214-3.404
				C256.095,101.331,257.431,100.802,258.372,100.916z"/>
			<path style="fill-rule:evenodd;clip-rule:evenodd;fill:#EA745D;" d="M215.654,98.477c-0.146,0.008-0.292,0.019-0.437,0.039
				h-0.005h0.002c-2.675,0.337-4.859,2.481-5.142,5.278c-0.326,3.25,2.044,6.15,5.294,6.476c3.25,0.326,6.15-2.044,6.476-5.292
				c0.191-1.89-0.53-3.66-1.805-4.875c0.008,1.752-0.443,3.883-2.683,3.919l0.34-3.395
				C217.835,99.252,216.601,98.516,215.654,98.477z"/>
			<path style="fill-rule:evenodd;clip-rule:evenodd;fill:#F4AD85;" d="M240.422,70.454L240.422,70.454
				c11.1,0.902,19.447,10.725,18.542,21.827l-1.493,18.358c-0.904,11.102-10.725,19.445-21.828,18.541l0,0
				c-11.099-0.902-19.443-10.725-18.541-21.826l1.495-18.358C219.499,77.895,229.323,69.55,240.422,70.454z"/>
			<path style="fill-rule:evenodd;clip-rule:evenodd;fill:#EF8871;" d="M240.422,70.454L240.422,70.454
				c10.528,0.856,18.576,9.735,18.608,20.12c-0.311,0.928-0.809,1.836-1.532,2.709l-9.031-2.516c0,0-8.513,10.201-21.481,10.316
				c-3.486,0.031-5.254,3.154-5.267,6.482c-0.026,8.109,4.22,20.656,21.333,20.835c-2.338,0.702-4.84,0.989-7.411,0.779l0,0
				c-11.099-0.902-19.443-10.725-18.541-21.826l1.495-18.358C219.499,77.895,229.323,69.55,240.422,70.454z"/>
			<path style="fill-rule:evenodd;clip-rule:evenodd;fill:#EA745D;" d="M229.048,109.322c1.468,0.091,2.586,1.356,2.492,2.824
				c-0.091,1.468-1.355,2.584-2.823,2.492c-1.468-0.092-2.585-1.355-2.492-2.825C226.315,110.348,227.581,109.23,229.048,109.322z"
				/>
			<path style="fill-rule:evenodd;clip-rule:evenodd;fill:#EA745D;" d="M251.114,110.573c1.468,0.092,2.583,1.355,2.492,2.823
				c-0.09,1.469-1.355,2.586-2.823,2.494c-1.467-0.092-2.585-1.355-2.492-2.825C248.381,111.597,249.646,110.481,251.114,110.573z"
				/>
			<path style="fill-rule:evenodd;clip-rule:evenodd;fill:#03061E;" d="M228.761,96.791c-0.416,0.055-0.798-0.239-0.853-0.655
				c-0.056-0.414,0.237-0.798,0.652-0.852c0.684-0.1,1.503-0.066,2.179,0.04c1.492,0.235,2.845,0.888,3.828,2.059
				c0.268,0.321,0.228,0.803-0.092,1.073c-0.321,0.268-0.804,0.227-1.072-0.093C232.279,97.024,230.431,96.599,228.761,96.791z"/>
			<path style="fill-rule:evenodd;clip-rule:evenodd;fill:#03061E;" d="M254.281,97.92c-1.559-0.646-3.437-0.775-4.901,0.197
				c-0.348,0.233-0.822,0.137-1.053-0.213c-0.231-0.349-0.138-0.822,0.212-1.053c1.273-0.848,2.755-1.092,4.252-0.896
				c0.681,0.088,1.477,0.286,2.104,0.573c0.382,0.17,0.556,0.62,0.385,1.004C255.109,97.915,254.66,98.088,254.281,97.92z"/>
			<path style="fill-rule:evenodd;clip-rule:evenodd;fill:#081033;" d="M221.569,98.997c0,0-0.109,1.349-0.212,2.602
				c-0.103,1.252-3.146,4.004-4.105,3.926l0.371-4.573c0,0-0.236-2.129-2.826-2.341c-7.202-9.78-4.975-24.193,4.119-31.019
				c9.091-6.828,27.345-5.827,30.439-4.509c3.094,1.318,5.932,6.982,5.932,6.982s2.895-2.19,5.299-0.734
				c2.404,1.456,9.503,17.944,9.18,21.894c-0.321,3.952-8.606,11.16-8.606,11.16c-2.588-0.212-3.167,1.853-3.167,1.853l-0.233,2.842
				c-0.958-0.079-1.392-1.41-1.291-2.663c0.101-1.252,0.21-2.601,0.21-2.601c-7.688-4.192-9.967-15.184-9.967-15.184
				S234.429,101.963,221.569,98.997z"/>
			<path style="fill-rule:evenodd;clip-rule:evenodd;fill:#0D1947;" d="M211.042,80.326c0.776-3.644,2.402-7.067,4.795-9.846
				c6.697,7.983,18.796,14.979,34.818-6.6c0.623,0.495,1.221,1.118,1.763,1.776C245.584,76.915,230.259,95.84,211.042,80.326z"/>
			<path style="fill-rule:evenodd;clip-rule:evenodd;fill:#03061E;" d="M221.569,98.997c0,0-0.109,1.349-0.212,2.602
				c-0.103,1.252-3.146,4.004-4.105,3.926l0.371-4.573c0,0-0.236-2.129-2.826-2.341c-2.818-3.826-4.192-8.364-4.276-12.878
				c0.009,0.01,12.955,13.899,35.987-1.728c0,0,5.681,15.248,19.105,13.984c-2.203,2.435-4.454,4.395-4.454,4.395
				c-2.588-0.212-3.167,1.853-3.167,1.853l-0.233,2.842c-0.958-0.079-1.392-1.41-1.291-2.663c0.101-1.252,0.21-2.601,0.21-2.601
				c-7.688-4.192-9.967-15.184-9.967-15.184S234.429,101.963,221.569,98.997z"/>
			<path style="fill-rule:evenodd;clip-rule:evenodd;fill:#F8CAB0;" d="M242.887,109.841c0,0-0.084,2.014,0.435,2.372
				c0.517,0.358,2.099,0.328,1.668-0.779c-0.431-1.106-1.259-1.789-1.551-1.913C243.15,109.401,242.854,109.555,242.887,109.841z"/>
			<g>
				<path style="fill-rule:evenodd;clip-rule:evenodd;fill:#03061E;" d="M246.785,115.87c-0.17,2.714-2.508,4.774-5.222,4.604
					c-2.714-0.17-4.775-2.508-4.603-5.222h0.008c0.029-0.466,0.435-0.824,0.902-0.795l8.112,0.511
					c0.466,0.029,0.824,0.435,0.795,0.902H246.785z"/>
				<path style="fill-rule:evenodd;clip-rule:evenodd;fill:#E4414F;" d="M244.714,119.579c-0.886,0.628-1.985,0.967-3.15,0.895
					c-0.954-0.061-1.827-0.389-2.55-0.906c0.44-0.984,1.589-1.668,2.922-1.634C243.206,117.966,244.28,118.643,244.714,119.579z"/>
				<path style="fill-rule:evenodd;clip-rule:evenodd;fill:#FFFFFF;" d="M237.761,114.459l7.624,0.48
					c0.067,0.851-0.376,1.678-0.954,1.827c-0.707,0.182-6.214-0.308-6.577-0.768C237.679,115.777,237.697,115.1,237.761,114.459z"/>
			</g>
			<path style="fill-rule:evenodd;clip-rule:evenodd;fill:#03061E;" d="M230.95,101.171L230.95,101.171
				c-0.475-0.024-0.92,0.122-1.276,0.387c-0.143-0.045-0.386-0.158-0.509-0.432c-0.07-0.157-0.257-0.228-0.416-0.157
				c-0.159,0.072-0.228,0.257-0.156,0.416c0.145,0.323,0.382,0.522,0.604,0.642l-0.016,0.018c-0.26-0.075-0.562-0.231-0.791-0.546
				c-0.103-0.14-0.3-0.17-0.439-0.067c-0.141,0.101-0.172,0.299-0.071,0.437c0.26,0.354,0.583,0.565,0.893,0.69l-0.003,0.007
				c-0.297-0.034-0.62-0.133-0.928-0.354c-0.141-0.101-0.337-0.067-0.438,0.074c-0.101,0.143-0.066,0.339,0.075,0.438
				c0.315,0.227,0.643,0.355,0.954,0.421l0.433,0.085l-0.125,2.379c-0.058,1.084,0.782,2.019,1.866,2.075v0.002
				c1.085,0.056,2.018-0.784,2.076-1.868l0.137-2.571C232.875,102.162,232.035,101.229,230.95,101.171z"/>
			<path style="fill-rule:evenodd;clip-rule:evenodd;fill:#03061E;" d="M251.278,102.21L251.278,102.21
				c0.476,0.024,0.903,0.217,1.23,0.517c0.148-0.031,0.4-0.117,0.553-0.377c0.087-0.151,0.279-0.201,0.429-0.114
				c0.149,0.088,0.201,0.28,0.114,0.431c-0.178,0.305-0.436,0.479-0.669,0.576l0.014,0.02c0.267-0.05,0.584-0.172,0.845-0.461
				c0.116-0.128,0.315-0.14,0.443-0.024c0.129,0.117,0.138,0.314,0.023,0.445c-0.293,0.323-0.636,0.501-0.957,0.594l0.003,0.005
				c0.299-0.003,0.629-0.067,0.959-0.255c0.151-0.085,0.343-0.032,0.429,0.121c0.083,0.149,0.032,0.342-0.119,0.427
				c-0.339,0.192-0.677,0.286-0.994,0.319l-0.439,0.04l-0.122,2.38c-0.055,1.084-0.987,1.927-2.071,1.872l0,0
				c-1.084-0.056-1.927-0.987-1.872-2.071l0.131-2.572C249.261,102.997,250.192,102.156,251.278,102.21z"/>
			<g>
				<path style="fill-rule:evenodd;clip-rule:evenodd;fill:#081033;" d="M319.734,221.157H227.87c-1.605,0-2.916-1.312-2.916-2.916
					v-0.001c0-1.605,1.311-2.918,2.916-2.918h91.864c1.604,0,2.917,1.313,2.917,2.918v0.001
					C322.652,219.845,321.338,221.157,319.734,221.157z"/>
				<path style="fill-rule:evenodd;clip-rule:evenodd;fill:#03061E;" d="M319.734,221.157h-91.863c-1.039,0-1.958-0.551-2.475-1.374
					c0.517-0.825,1.436-1.376,2.475-1.376h91.863c1.039,0,1.957,0.551,2.473,1.376C321.691,220.606,320.773,221.157,319.734,221.157
					z"/>
				<path style="fill-rule:evenodd;clip-rule:evenodd;fill:#03061E;" d="M322.003,215.321h-73.477c-2.097,0-3.603-1.716-3.346-3.816
					l5.857-47.592c0.259-2.099,2.187-3.817,4.287-3.817h73.474c2.101,0,3.606,1.718,3.348,3.817l-5.858,47.592
					C326.03,213.605,324.102,215.321,322.003,215.321z"/>
				<path style="fill-rule:evenodd;clip-rule:evenodd;fill:#081033;" d="M322.003,215.321h-71.31c-2.097,0-3.604-1.716-3.346-3.816
					l5.858-47.592c0.257-2.099,2.187-3.817,4.287-3.817h71.306c2.101,0,3.606,1.718,3.348,3.817l-5.858,47.592
					C326.03,213.605,324.102,215.321,322.003,215.321z"/>
				<path style="fill-rule:evenodd;clip-rule:evenodd;fill:#0D1947;" d="M318.117,215.321h-7.338l-57.918-48.618l0.344-2.79
					c0.103-0.833,0.469-1.607,1.005-2.237L318.117,215.321L318.117,215.321z M262.543,160.096l63.18,53.035
					c0.294-0.495,0.495-1.045,0.565-1.626l0.912-7.401l-52.428-44.008H262.543z"/>
				<path style="fill-rule:evenodd;clip-rule:evenodd;fill:#03061E;" d="M244.566,221.157H227.87c-1.605,0-2.916-1.312-2.916-2.916
					v-0.001c0-1.605,1.311-2.918,2.916-2.918h16.696c1.606,0,2.918,1.313,2.918,2.918v0.001
					C247.484,219.845,246.172,221.157,244.566,221.157z"/>
				<path style="fill-rule:evenodd;clip-rule:evenodd;fill:#03061E;" d="M321.194,216.781h-76.441c-0.803,0-1.459-0.657-1.459-1.46
					l0,0c0-0.803,0.657-1.458,1.459-1.458h76.441c0.801,0,1.458,0.655,1.458,1.458l0,0
					C322.652,216.124,321.995,216.781,321.194,216.781z"/>
				<path style="fill-rule:evenodd;clip-rule:evenodd;fill:#FFFDF8;" d="M291.25,180.373c-4.051,0-7.672,3.285-8.088,7.337
					c-0.414,4.051,2.532,7.335,6.585,7.335c4.051,0,7.672-3.284,8.086-7.335c0.064-0.634,0.048-1.248-0.042-1.833
					c-0.728,0.685-1.702,1.113-2.728,1.113c-2,0-3.457-1.622-3.251-3.623c0.109-1.071,0.673-2.033,1.478-2.696
					C292.654,180.477,291.97,180.373,291.25,180.373z"/>
			</g>
		</g>
		<g>
			<path style="fill-rule:evenodd;clip-rule:evenodd;fill:#CCC5E1;" d="M606.882,181.658c11.915,0,21.574,9.658,21.574,21.573
				c0,11.916-9.659,21.574-21.574,21.574h-18.854c-1.471,5.623-5.896,7.054-10.016,7.054c-5.034,0-22.423,0-30.81,0
				c-8.39,0-10.371-7.054-10.371-7.054h-18.469c-4.917,0-8.902-3.985-8.902-8.902c0-4.689,3.623-8.53,8.222-8.876
				c-0.03-0.429-0.047-0.861-0.047-1.297c0-9.784,7.931-17.714,17.713-17.714c2.572,0,5.015,0.549,7.219,1.535
				c2.143-14.939,14.991-26.424,30.525-26.424c12.901,0,23.952,7.926,28.553,19.172C603.32,181.879,605.075,181.658,606.882,181.658
				z"/>
			<path style="fill-rule:evenodd;clip-rule:evenodd;fill:#FFFFFF;" d="M607.341,177.676c11.915,0,21.575,9.658,21.575,21.572
				c0,11.916-9.66,21.575-21.575,21.575h-33.79h-54.729c-4.916,0-8.901-3.985-8.901-8.902c0-4.687,3.622-8.529,8.221-8.876
				c-0.028-0.429-0.047-0.86-0.047-1.297c0-9.783,7.931-17.714,17.715-17.714c2.57,0,5.015,0.549,7.218,1.535
				c2.143-14.939,14.99-26.423,30.524-26.423c12.903,0,23.952,7.926,28.553,19.172C603.779,177.899,605.535,177.676,607.341,177.676
				z"/>
			<path style="fill-rule:evenodd;clip-rule:evenodd;fill:#DEEAF7;" d="M586.686,216.438c0-9.304,0-17.767,0-17.767h4.508h1.486
				l-13.781-19.256h-2.308l-16.091,19.256h1.488h4.509c0,0.05,0,0.101,0,0.152c0,21.025,0.609,22-15.087,22h22.14h12.629
				C586.506,219.577,586.686,218.125,586.686,216.438z"/>
			<path style="fill-rule:evenodd;clip-rule:evenodd;fill:#E74D91;" d="M588.994,216.438c0-9.304,0-17.767,0-17.767h4.509h1.487
				l-16.091-19.256l-16.091,19.256h1.486h4.509c0,0.05,0,0.101,0,0.152c0,21.025,0.61,22-15.084,22h-16.43
				c0,0,1.982,7.054,10.37,7.054c8.39,0,25.778,0,30.81,0c4.12,0,8.547-1.431,10.017-7.054
				C588.815,219.577,588.994,218.125,588.994,216.438z"/>
		</g>
		<g>
			<g>
				<path style="fill-rule:evenodd;clip-rule:evenodd;fill:#B8B0D6;" d="M419.464,390.231h3.988c0.958,0,1.742-0.785,1.742-1.745
					v-3.987c0-0.958-0.784-1.743-1.742-1.743h-3.988c-0.961,0-1.744,0.785-1.744,1.743v3.987
					C417.72,389.446,418.503,390.231,419.464,390.231z"/>
				<path style="fill-rule:evenodd;clip-rule:evenodd;fill:#FFFFFF;" d="M433.292,390.231h3.988c0.959,0,1.744-0.785,1.744-1.745
					v-3.987c0-0.958-0.785-1.743-1.744-1.743h-3.988c-0.96,0-1.744,0.785-1.744,1.743v3.987
					C431.548,389.446,432.332,390.231,433.292,390.231z"/>
				<path style="fill-rule:evenodd;clip-rule:evenodd;fill:#B8B0D6;" d="M447.12,390.231h3.988c0.961,0,1.744-0.785,1.744-1.745
					v-3.987c0-0.958-0.783-1.743-1.744-1.743h-3.988c-0.959,0-1.744,0.785-1.744,1.743v3.987
					C445.376,389.446,446.161,390.231,447.12,390.231z"/>
				<path style="fill-rule:evenodd;clip-rule:evenodd;fill:#FFFFFF;" d="M460.948,390.231h3.989c0.96,0,1.743-0.785,1.743-1.745
					v-3.987c0-0.958-0.783-1.743-1.743-1.743h-3.989c-0.957,0-1.743,0.785-1.743,1.743v3.987
					C459.205,389.446,459.991,390.231,460.948,390.231z"/>
				<path style="fill-rule:evenodd;clip-rule:evenodd;fill:#B8B0D6;" d="M474.78,390.231h3.985c0.96,0,1.744-0.785,1.744-1.745
					v-3.987c0-0.958-0.784-1.743-1.744-1.743h-3.985c-0.96,0-1.744,0.785-1.744,1.743v3.987
					C473.036,389.446,473.82,390.231,474.78,390.231z"/>
				<path style="fill-rule:evenodd;clip-rule:evenodd;fill:#FFFFFF;" d="M447.621,375.154h3.988c0.961,0,1.744-0.784,1.744-1.744
					v-3.988c0-0.959-0.783-1.742-1.744-1.742h-3.988c-0.96,0-1.744,0.783-1.744,1.742v3.988
					C445.877,374.37,446.661,375.154,447.621,375.154z"/>
				<path style="fill-rule:evenodd;clip-rule:evenodd;fill:#B8B0D6;" d="M461.449,375.154h3.989c0.96,0,1.743-0.784,1.743-1.744
					v-3.988c0-0.959-0.783-1.742-1.743-1.742h-3.989c-0.958,0-1.743,0.783-1.743,1.742v3.988
					C459.706,374.37,460.491,375.154,461.449,375.154z"/>
				<path style="fill-rule:evenodd;clip-rule:evenodd;fill:#FFFFFF;" d="M475.278,375.154h3.988c0.96,0,1.744-0.784,1.744-1.744
					v-3.988c0-0.959-0.784-1.742-1.744-1.742h-3.988c-0.959,0-1.742,0.783-1.742,1.742v3.988
					C473.536,374.37,474.319,375.154,475.278,375.154z"/>
			</g>
			<path style="fill-rule:evenodd;clip-rule:evenodd;fill:#B8B0D6;" d="M464.539,82.308c0-0.509,0.414-0.92,0.922-0.92
				c0.507,0,0.921,0.411,0.921,0.92v4.14c0,0.509-0.414,0.921-0.921,0.921c-0.508,0-0.922-0.413-0.922-0.921V82.308L464.539,82.308z
				 M458.266,85.67c-0.358-0.36-0.358-0.944,0-1.302c0.357-0.36,0.942-0.36,1.302,0l2.928,2.927c0.361,0.36,0.361,0.942,0,1.302
				c-0.358,0.36-0.942,0.36-1.303,0L458.266,85.67L458.266,85.67z M456.205,92.483c-0.507,0-0.92-0.413-0.92-0.92
				c0-0.509,0.413-0.92,0.92-0.92h4.142c0.509,0,0.92,0.411,0.92,0.92c0,0.507-0.411,0.92-0.92,0.92H456.205L456.205,92.483z
				 M459.567,98.758c-0.359,0.358-0.944,0.358-1.302,0c-0.358-0.359-0.358-0.944,0-1.302l2.927-2.929
				c0.36-0.359,0.944-0.359,1.303,0c0.361,0.36,0.361,0.943,0,1.302L459.567,98.758L459.567,98.758z M466.382,100.816
				c0,0.509-0.414,0.92-0.921,0.92c-0.508,0-0.922-0.411-0.922-0.92v-4.139c0-0.509,0.414-0.922,0.922-0.922
				c0.507,0,0.921,0.413,0.921,0.922V100.816L466.382,100.816z M472.656,97.456c0.359,0.358,0.359,0.942,0,1.302
				c-0.36,0.358-0.943,0.358-1.303,0l-2.929-2.929c-0.358-0.359-0.358-0.942,0-1.302c0.359-0.359,0.944-0.359,1.304,0
				L472.656,97.456L472.656,97.456z M474.716,90.643c0.508,0,0.92,0.411,0.92,0.92c0,0.507-0.412,0.92-0.92,0.92h-4.143
				c-0.508,0-0.919-0.413-0.919-0.92c0-0.509,0.411-0.92,0.919-0.92H474.716L474.716,90.643z M471.353,84.368
				c0.359-0.36,0.942-0.36,1.303,0c0.359,0.358,0.359,0.942,0,1.302l-2.928,2.927c-0.359,0.36-0.944,0.36-1.304,0
				c-0.358-0.36-0.358-0.942,0-1.302L471.353,84.368z"/>
			<path style="fill-rule:evenodd;clip-rule:evenodd;fill:#B8B0D6;" d="M171.23,92.804c0-0.509,0.413-0.922,0.922-0.922
				c0.507,0,0.918,0.413,0.918,0.922v4.141c0,0.507-0.411,0.92-0.918,0.92c-0.509,0-0.922-0.413-0.922-0.92V92.804L171.23,92.804z
				 M164.955,96.165c-0.36-0.358-0.36-0.943,0-1.302c0.359-0.358,0.944-0.358,1.302,0l2.929,2.929c0.358,0.359,0.358,0.942,0,1.302
				c-0.36,0.359-0.942,0.359-1.302,0L164.955,96.165L164.955,96.165z M162.896,102.979c-0.507,0-0.922-0.413-0.922-0.92
				c0-0.509,0.415-0.922,0.922-0.922h4.14c0.509,0,0.921,0.413,0.921,0.922c0,0.507-0.413,0.92-0.921,0.92H162.896L162.896,102.979z
				 M166.257,109.253c-0.358,0.36-0.943,0.36-1.302,0c-0.36-0.358-0.36-0.942,0-1.302l2.929-2.927c0.36-0.359,0.942-0.359,1.302,0
				c0.358,0.36,0.358,0.943,0,1.302L166.257,109.253L166.257,109.253z M173.07,111.313c0,0.507-0.411,0.92-0.918,0.92
				c-0.509,0-0.922-0.413-0.922-0.92v-4.141c0-0.507,0.413-0.92,0.922-0.92c0.507,0,0.918,0.413,0.918,0.92V111.313L173.07,111.313z
				 M179.345,107.951c0.36,0.36,0.36,0.944,0,1.302c-0.359,0.36-0.941,0.36-1.3,0l-2.929-2.927c-0.359-0.359-0.359-0.942,0-1.302
				c0.36-0.359,0.943-0.359,1.301,0L179.345,107.951L179.345,107.951z M181.405,101.138c0.509,0,0.92,0.413,0.92,0.922
				c0,0.507-0.411,0.92-0.92,0.92h-4.141c-0.507,0-0.92-0.413-0.92-0.92c0-0.509,0.413-0.922,0.92-0.922H181.405L181.405,101.138z
				 M178.045,94.863c0.359-0.358,0.941-0.358,1.3,0c0.36,0.359,0.36,0.944,0,1.302l-2.929,2.929c-0.358,0.359-0.941,0.359-1.301,0
				c-0.359-0.36-0.359-0.943,0-1.302L178.045,94.863z"/>
			<path style="fill-rule:evenodd;clip-rule:evenodd;fill:#B8B0D6;" d="M655.627,321.684c0-0.509,0.412-0.92,0.92-0.92
				c0.507,0,0.922,0.411,0.922,0.92v4.142c0,0.507-0.415,0.92-0.922,0.92c-0.508,0-0.92-0.413-0.92-0.92V321.684L655.627,321.684z
				 M649.354,325.046c-0.36-0.359-0.36-0.944,0-1.302c0.357-0.36,0.94-0.36,1.3,0l2.929,2.927c0.358,0.36,0.358,0.942,0,1.303
				c-0.359,0.359-0.943,0.359-1.302,0L649.354,325.046L649.354,325.046z M647.291,331.859c-0.507,0-0.918-0.413-0.918-0.92
				c0-0.51,0.411-0.921,0.918-0.921h4.143c0.508,0,0.921,0.411,0.921,0.921c0,0.507-0.413,0.92-0.921,0.92H647.291L647.291,331.859z
				 M650.653,338.134c-0.359,0.358-0.942,0.358-1.3,0c-0.36-0.359-0.36-0.943,0-1.302l2.927-2.929c0.358-0.359,0.942-0.359,1.302,0
				c0.358,0.359,0.358,0.942,0,1.302L650.653,338.134L650.653,338.134z M657.469,340.192c0,0.51-0.415,0.921-0.922,0.921
				c-0.508,0-0.92-0.411-0.92-0.921v-4.139c0-0.51,0.412-0.922,0.92-0.922c0.507,0,0.922,0.412,0.922,0.922V340.192L657.469,340.192
				z M663.742,336.832c0.359,0.358,0.359,0.942,0,1.302c-0.358,0.358-0.943,0.358-1.303,0l-2.927-2.929
				c-0.358-0.359-0.358-0.942,0-1.302c0.357-0.359,0.942-0.359,1.302,0L663.742,336.832L663.742,336.832z M665.802,330.019
				c0.508,0,0.922,0.411,0.922,0.921c0,0.507-0.414,0.92-0.922,0.92h-4.141c-0.509,0-0.921-0.413-0.921-0.92
				c0-0.51,0.412-0.921,0.921-0.921H665.802L665.802,330.019z M662.44,323.744c0.359-0.36,0.944-0.36,1.303,0
				c0.359,0.357,0.359,0.942,0,1.302l-2.928,2.928c-0.359,0.359-0.944,0.359-1.302,0c-0.358-0.36-0.358-0.942,0-1.303
				L662.44,323.744z"/>
			<path style="fill-rule:evenodd;clip-rule:evenodd;fill:#B8B0D6;" d="M108.786,294.602L108.786,294.602L108.786,294.602z
				 M104.336,277.66c-1.549-1.55-3.689-2.507-6.053-2.507s-4.502,0.957-6.052,2.507c-1.549,1.55-2.506,3.689-2.506,6.052
				c0,2.363,0.957,4.504,2.506,6.052c1.55,1.55,3.688,2.508,6.052,2.508s4.504-0.958,6.053-2.508
				c1.548-1.548,2.507-3.689,2.507-6.052C106.843,281.35,105.884,279.21,104.336,277.66L104.336,277.66z M102.486,269.177
				c1.185,0.342,2.311,0.825,3.354,1.428c1.071,0.62,2.06,1.366,2.943,2.219c0.173,0.166,0.43,0.191,0.626,0.076l3.979-2.297
				l0.021-0.013c0.228-0.123,0.486-0.146,0.724-0.083c0.246,0.065,0.466,0.225,0.601,0.457l0.016,0.027l2.797,4.847
				c0.135,0.234,0.162,0.504,0.097,0.749c-0.064,0.244-0.224,0.465-0.456,0.6l-0.029,0.016l-3.943,2.277
				c-0.207,0.12-0.302,0.359-0.247,0.581h-0.002c0.146,0.586,0.257,1.19,0.333,1.808c0.074,0.603,0.111,1.218,0.111,1.844
				c0,0.626-0.037,1.241-0.111,1.844c-0.077,0.618-0.187,1.222-0.333,1.81c-0.06,0.242,0.06,0.489,0.278,0.596l3.944,2.276l0,0
				c0.232,0.137,0.392,0.355,0.456,0.601c0.065,0.246,0.038,0.516-0.097,0.748l-2.813,4.875v-0.001
				c-0.135,0.234-0.355,0.392-0.601,0.457c-0.244,0.066-0.512,0.039-0.745-0.096l-0.03-0.017l-3.95-2.28
				c-0.206-0.118-0.461-0.08-0.624,0.077c-0.883,0.852-1.873,1.6-2.942,2.218c-1.052,0.607-2.184,1.092-3.378,1.434
				c-0.231,0.067-0.382,0.278-0.382,0.508v4.588c0,0.27-0.109,0.515-0.289,0.693c-0.178,0.178-0.424,0.29-0.693,0.29h-5.631
				c-0.27,0-0.516-0.112-0.695-0.29c-0.178-0.179-0.289-0.424-0.289-0.693v-4.59c0-0.247-0.172-0.456-0.403-0.511
				c-1.187-0.342-2.311-0.825-3.356-1.429c-1.071-0.618-2.059-1.366-2.943-2.218c-0.18-0.173-0.451-0.192-0.652-0.061l-3.95,2.281
				c-0.234,0.134-0.502,0.161-0.748,0.095c-0.244-0.065-0.463-0.223-0.599-0.457l-0.018-0.027l-2.797-4.848l0,0
				c-0.135-0.234-0.16-0.503-0.096-0.748c0.067-0.244,0.225-0.465,0.456-0.6l3.973-2.293c0.208-0.118,0.303-0.359,0.249-0.579H83.6
				c-0.146-0.588-0.257-1.19-0.334-1.809c-0.072-0.604-0.109-1.219-0.109-1.845c0-0.626,0.037-1.241,0.109-1.844
				c0.077-0.618,0.188-1.222,0.334-1.808c0.059-0.244-0.061-0.49-0.279-0.598l-3.944-2.276c-0.231-0.135-0.389-0.355-0.456-0.6
				c-0.064-0.245-0.039-0.514,0.096-0.746l0.016-0.03l2.797-4.847h0.001c0.137-0.232,0.355-0.392,0.599-0.457
				c0.244-0.064,0.514-0.039,0.748,0.095v0.001l3.976,2.297c0.212,0.123,0.475,0.08,0.639-0.087
				c0.882-0.848,1.866-1.592,2.932-2.208c1.05-0.607,2.181-1.092,3.376-1.434c0.231-0.066,0.382-0.276,0.382-0.506v-4.588
				c0-0.27,0.111-0.517,0.289-0.695c0.18-0.178,0.426-0.289,0.695-0.289h5.631c0.27,0,0.515,0.111,0.693,0.289
				c0.18,0.179,0.289,0.426,0.289,0.695v4.588C102.081,268.914,102.255,269.122,102.486,269.177z"/>
			<path style="fill-rule:evenodd;clip-rule:evenodd;fill:#FFFFFF;" d="M142.343,173.152c1.901,0,3.452-1.551,3.452-3.454
				c0-1.901-1.551-3.452-3.452-3.452c-1.903,0-3.454,1.551-3.454,3.452C138.89,171.601,140.44,173.152,142.343,173.152z"/>
			<path style="fill-rule:evenodd;clip-rule:evenodd;fill:#FFFFFF;" d="M408.712,94.723c1.9,0,3.452-1.551,3.452-3.454
				c0-1.901-1.552-3.454-3.452-3.454c-1.901,0-3.452,1.553-3.452,3.454C405.26,93.172,406.81,94.723,408.712,94.723z"/>
			<path style="fill-rule:evenodd;clip-rule:evenodd;fill:#FFFFFF;" d="M517.232,279.206c1.9,0,3.452-1.551,3.452-3.452
				c0-1.902-1.552-3.454-3.452-3.454c-1.901,0-3.453,1.552-3.453,3.454C513.779,277.655,515.331,279.206,517.232,279.206z"/>
			<path style="fill-rule:evenodd;clip-rule:evenodd;fill:#FFFFFF;" d="M656.336,366.023c1.901,0,3.454-1.551,3.454-3.453
				c0-1.901-1.553-3.452-3.454-3.452c-1.9,0-3.452,1.551-3.452,3.452C652.884,364.473,654.435,366.023,656.336,366.023z"/>
			<path style="fill-rule:evenodd;clip-rule:evenodd;fill:#FFFFFF;" d="M223.239,402.524c1.901,0,3.452-1.549,3.452-3.452
				c0-1.9-1.551-3.453-3.452-3.453c-1.901,0-3.453,1.553-3.453,3.453C219.787,400.976,221.338,402.524,223.239,402.524z"/>
			<path style="fill-rule:evenodd;clip-rule:evenodd;fill:#FFFFFF;" d="M368.832,107.851c0-0.509,0.415-0.92,0.922-0.92
				c0.507,0,0.92,0.411,0.92,0.92v4.141c0,0.507-0.413,0.92-0.92,0.92c-0.507,0-0.922-0.413-0.922-0.92V107.851L368.832,107.851z
				 M362.559,111.213c-0.36-0.359-0.36-0.942,0-1.302c0.358-0.359,0.942-0.359,1.302,0l2.926,2.927c0.359,0.36,0.359,0.943,0,1.302
				c-0.358,0.36-0.941,0.36-1.301,0L362.559,111.213L362.559,111.213z M360.499,118.026c-0.507,0-0.922-0.413-0.922-0.92
				c0-0.509,0.414-0.92,0.922-0.92h4.141c0.507,0,0.92,0.411,0.92,0.92c0,0.507-0.413,0.92-0.92,0.92H360.499L360.499,118.026z
				 M363.861,124.302c-0.36,0.36-0.944,0.36-1.302,0c-0.36-0.36-0.36-0.942,0-1.302l2.927-2.929c0.36-0.36,0.942-0.36,1.301,0
				c0.359,0.359,0.359,0.942,0,1.302L363.861,124.302L363.861,124.302z M370.674,126.36c0,0.509-0.413,0.921-0.92,0.921
				c-0.507,0-0.922-0.413-0.922-0.921v-4.14c0-0.509,0.415-0.922,0.922-0.922c0.507,0,0.92,0.413,0.92,0.922V126.36L370.674,126.36z
				 M376.947,122.999c0.359,0.36,0.359,0.942,0,1.302c-0.359,0.36-0.94,0.36-1.3,0l-2.929-2.929c-0.359-0.36-0.359-0.943,0-1.302
				c0.36-0.36,0.943-0.36,1.302,0L376.947,122.999L376.947,122.999z M379.009,116.187c0.508,0,0.919,0.411,0.919,0.92
				c0,0.507-0.411,0.92-0.919,0.92h-4.143c-0.507,0-0.92-0.413-0.92-0.92c0-0.509,0.413-0.92,0.92-0.92H379.009L379.009,116.187z
				 M375.647,109.911c0.36-0.359,0.941-0.359,1.3,0c0.359,0.36,0.359,0.943,0,1.302l-2.927,2.927c-0.359,0.36-0.942,0.36-1.302,0
				c-0.359-0.359-0.359-0.942,0-1.302L375.647,109.911z"/>
			<path style="fill-rule:evenodd;clip-rule:evenodd;fill:#FFFFFF;" d="M526.606,148.487c1.9,0,3.452-1.551,3.452-3.452
				c0-1.903-1.552-3.454-3.452-3.454c-1.901,0-3.453,1.551-3.453,3.454C523.153,146.936,524.705,148.487,526.606,148.487z"/>
		</g>
		<g>
			<path style="fill-rule:evenodd;clip-rule:evenodd;fill:#E74D91;" d="M355.518,38.592h-68.695c-4.991,0-9.072,4.084-9.072,9.074
				v43.335v2.767v23.816c0,0.419,0.239,0.775,0.626,0.936c0.385,0.161,0.806,0.077,1.103-0.22l15.458-15.458h60.58
				c4.991,0,9.072-4.084,9.072-9.074V47.666C364.59,42.675,360.506,38.592,355.518,38.592z"/>
			<path style="fill-rule:evenodd;clip-rule:evenodd;fill:#FFFFFF;" d="M336.336,54.539l0.267,0.266l-13.459,13.459l-8.86-8.862
				c1.099-3.462,0.273-7.402-2.473-10.15c-2.543-2.543-6.115-3.438-9.379-2.682l2.664,2.664l2.168,2.167l-0.793,2.961l-0.793,2.962
				l-2.964,0.793l-2.961,0.795l-2.168-2.17l-2.664-2.662c-0.756,3.264,0.138,6.834,2.683,9.379c2.746,2.746,6.687,3.569,10.15,2.471
				l6.503,6.504L301.251,85.44c-1.116,1.116-1.116,2.943,0,4.059l3.455,3.454c1.114,1.116,2.941,1.116,4.059,0l13.003-13.005
				l13.148,13.149c1.207,1.208,3.186,1.208,4.393,0l2.139-2.139c1.208-1.207,1.208-3.184,0-4.392L325.94,71.06l13.459-13.458
				l0.267,0.267c0.344,0.344,0.962,0.398,1.373,0.122l6.292-4.234c0.411-0.278,0.466-0.787,0.122-1.13l-2.052-2.052l-1.772-1.771
				l-2.052-2.052c-0.342-0.343-0.851-0.289-1.127,0.122l-4.236,6.293C335.938,53.577,335.992,54.195,336.336,54.539z"/>
		</g>
	</g>
</g>
<g id="DESIGNED_BY_FREEPIK">
	<path style="fill:#1C262D;" d="M384.396,475.844c-0.941,0.966-1.562,2.167-1.791,3.473l-0.748-0.132
		c0.107-0.604,0.289-1.19,0.539-1.743l-0.451-0.234c-0.057,0.026-0.117,0.045-0.184,0.052c-0.33,0.039-0.631-0.197-0.67-0.528
		c-0.037-0.331,0.199-0.631,0.529-0.67c0.31-0.036,0.592,0.169,0.66,0.466l0.465,0.241c0.305-0.522,0.676-1.01,1.107-1.453
		L384.396,475.844z M386.346,474.444c0.936-0.447,1.941-0.674,2.996-0.674c0.496,0,0.992,0.053,1.475,0.158l0.16-0.741
		c-0.535-0.116-1.084-0.175-1.635-0.175c-0.172,0-0.342,0.006-0.51,0.017l-0.074-0.626c0.188-0.149,0.297-0.389,0.266-0.645
		c-0.045-0.393-0.402-0.674-0.795-0.628c-0.393,0.046-0.674,0.402-0.627,0.796c0.029,0.254,0.189,0.461,0.404,0.563l0.072,0.624
		c-0.713,0.116-1.402,0.332-2.059,0.646L386.346,474.444z M395.797,474.362c-0.309,0.038-0.535,0.304-0.529,0.608l-0.416,0.363
		c-0.418-0.43-0.891-0.813-1.408-1.14l-0.404,0.642c1.135,0.715,2.021,1.727,2.564,2.925l0.69-0.313
		c-0.25-0.554-0.566-1.071-0.941-1.545l0.402-0.351c0.061,0.012,0.125,0.016,0.189,0.007c0.332-0.04,0.566-0.341,0.525-0.672
		C396.43,474.557,396.129,474.321,395.797,474.362z M388.795,483.221c-0.387,0.023-0.775,0.035-1.158,0.035
		c-0.879,0-1.732-0.061-2.478-0.18c-0.391-0.062-0.846-0.154-1.27-0.292c1.047,1.861,3.068,3.125,5.389,3.125
		c2.855,0,5.262-1.916,5.949-4.503c-0.682,0.449-1.506,0.825-2.459,1.122C391.588,482.897,390.213,483.136,388.795,483.221z
		 M395.373,479.725c0.025,0.191,0.041,0.387,0.045,0.581c-1.375,1.201-3.791,1.985-6.672,2.159
		c-2.641,0.159-4.674-0.248-5.348-0.731c-0.09-0.412-0.137-0.836-0.137-1.261c0-3.277,2.729-5.943,6.08-5.943
		C392.4,474.529,394.994,476.763,395.373,479.725z M389.031,479.194c0-1.021-0.83-1.85-1.85-1.85c-1.02,0-1.85,0.83-1.85,1.85
		c0,1.02,0.83,1.85,1.85,1.85C388.201,481.044,389.031,480.214,389.031,479.194z M393.279,478.775c0-0.75-0.609-1.36-1.359-1.36
		s-1.361,0.61-1.361,1.36s0.611,1.36,1.361,1.36S393.279,479.525,393.279,478.775z M403.119,477.165
		c0-0.666,0.293-0.938,0.844-1.007c0.576-0.071,1.088,0.122,1.383,0.238v-1.729c-0.434-0.187-0.947-0.308-1.59-0.308
		c-1.674,0-2.568,1.102-2.568,2.782v0.889h-1.34v1.717h1.34v5.455h1.932v-5.455h2.229v-1.717h-2.229V477.165z M409.973,477.839
		c-0.881,0-1.568,0.304-2.02,0.977v-0.784h-1.873v7.172h1.932v-3.908c0-1.065,0.615-1.613,1.51-1.613
		c0.168,0,0.35,0.017,0.525,0.046l1.021-1.552C410.82,477.967,410.387,477.839,409.973,477.839z M417.715,481.606
		c0,0.222-0.016,0.488-0.037,0.651h-5.084c0.207,1.036,0.932,1.487,1.842,1.487c0.623,0,1.295-0.252,1.815-0.688l1.133,1.243
		c-0.814,0.748-1.852,1.089-3.057,1.089c-2.199,0-3.725-1.496-3.725-3.753c0-2.258,1.48-3.797,3.627-3.797
		C416.293,477.839,417.707,479.371,417.715,481.606z M415.775,480.94c-0.178-0.918-0.732-1.436-1.561-1.436
		c-0.91,0-1.443,0.548-1.613,1.436H415.775z M425.369,481.606c0,0.222-0.016,0.488-0.037,0.651h-5.086
		c0.207,1.036,0.934,1.487,1.844,1.487c0.621,0,1.295-0.252,1.813-0.688l1.133,1.243c-0.814,0.748-1.85,1.089-3.057,1.089
		c-2.199,0-3.723-1.496-3.723-3.753c0-2.258,1.48-3.797,3.627-3.797C423.947,477.839,425.361,479.371,425.369,481.606z
		 M423.43,480.94c-0.178-0.918-0.734-1.436-1.563-1.436c-0.91,0-1.443,0.548-1.613,1.436H423.43z M433.715,481.613
		c0,2.154-1.496,3.775-3.473,3.775c-0.961,0-1.643-0.378-2.109-0.933v3.708h-1.924v-10.133h1.887v0.792
		c0.467-0.585,1.154-0.984,2.139-0.984C432.219,477.839,433.715,479.46,433.715,481.613z M431.73,481.613
		c0-1.095-0.711-1.976-1.85-1.976c-1.096,0-1.844,0.844-1.844,1.976c0,1.133,0.748,1.977,1.844,1.977
		C431.02,483.59,431.73,482.709,431.73,481.613z M435.582,474.441c-0.697,0-1.229,0.548-1.229,1.243
		c0,0.696,0.531,1.229,1.229,1.229c0.695,0,1.236-0.533,1.236-1.229C436.818,474.989,436.277,474.441,435.582,474.441z
		 M434.627,485.203h1.932v-7.172h-1.932V485.203z M441.373,481.406l3.479-3.375h-2.367l-2.703,2.554v-6.04h-1.932v10.658h1.932
		v-2.901l2.717,2.901h2.377L441.373,481.406z M308.162,475.368h1.099v9.771h-1.099v-1.055c-0.527,0.718-1.392,1.23-2.388,1.23
		c-1.846,0-3.149-1.406-3.149-3.706c0-2.256,1.289-3.721,3.149-3.721c0.952,0,1.816,0.469,2.388,1.245V475.368z M308.162,480.012
		c-0.396-0.615-1.245-1.143-2.124-1.143c-1.421,0-2.27,1.172-2.27,2.739s0.85,2.725,2.27,2.725c0.879,0,1.729-0.498,2.124-1.113
		V480.012z M317.565,481.682v0.278h-5.727c0.088,1.333,1.025,2.446,2.549,2.446c0.806,0,1.626-0.322,2.182-0.894l0.527,0.718
		c-0.703,0.703-1.654,1.084-2.812,1.084c-2.095,0-3.604-1.509-3.604-3.721c0-2.051,1.465-3.706,3.486-3.706
		C316.307,477.888,317.565,479.558,317.565,481.682z M316.482,481.154c-0.015-1.055-0.718-2.358-2.329-2.358
		c-1.509,0-2.256,1.274-2.314,2.358H316.482z M319.616,479.895c0-0.63,0.601-1.113,1.567-1.113c0.908,0,1.685,0.381,2.109,0.893
		l0.513-0.762c-0.571-0.571-1.421-1.025-2.622-1.025c-1.685,0-2.637,0.938-2.637,2.036c0,2.622,4.38,1.567,4.38,3.281
		c0,0.703-0.586,1.216-1.67,1.216c-0.967,0-1.86-0.469-2.329-1.011l-0.571,0.791c0.718,0.762,1.699,1.113,2.857,1.113
		c1.831,0,2.783-0.952,2.783-2.139C323.996,480.422,319.616,481.447,319.616,479.895z M325.959,475.573
		c-0.396,0-0.732,0.337-0.732,0.747c0,0.41,0.337,0.732,0.732,0.732c0.41,0,0.747-0.322,0.747-0.732
		C326.706,475.91,326.369,475.573,325.959,475.573z M325.417,485.139h1.099v-7.075h-1.099V485.139z M333.458,478.064h1.099v6.87
		c0,2.344-1.641,3.076-3.369,3.076c-1.201,0-2.022-0.235-2.855-1.055l0.556-0.82c0.586,0.703,1.289,0.967,2.3,0.967
		c1.172,0,2.271-0.571,2.271-2.124v-1.011c-0.513,0.718-1.377,1.26-2.373,1.26c-1.846,0-3.15-1.377-3.15-3.662
		c0-2.271,1.289-3.677,3.15-3.677c0.952,0,1.802,0.469,2.373,1.245V478.064z M333.458,480.012c-0.381-0.615-1.23-1.143-2.109-1.143
		c-1.421,0-2.27,1.128-2.27,2.695c0,1.553,0.849,2.695,2.27,2.695c0.879,0,1.728-0.542,2.109-1.157V480.012z M340.006,477.888
		c-1.055,0-2.021,0.615-2.52,1.201v-1.025h-1.099v7.075h1.099v-5.171c0.41-0.571,1.23-1.099,2.095-1.099
		c0.952,0,1.582,0.395,1.582,1.641v4.629h1.099v-4.966C342.262,478.635,341.485,477.888,340.006,477.888z M350.566,481.682v0.278
		h-5.727c0.088,1.333,1.025,2.446,2.548,2.446c0.806,0,1.626-0.322,2.183-0.894l0.527,0.718c-0.703,0.703-1.655,1.084-2.813,1.084
		c-2.094,0-3.604-1.509-3.604-3.721c0-2.051,1.465-3.706,3.486-3.706C349.307,477.888,350.566,479.558,350.566,481.682z
		 M349.482,481.154c-0.015-1.055-0.718-2.358-2.329-2.358c-1.509,0-2.256,1.274-2.314,2.358H349.482z M357.1,475.368h1.099v9.771
		H357.1v-1.055c-0.527,0.718-1.392,1.23-2.388,1.23c-1.846,0-3.149-1.406-3.149-3.706c0-2.256,1.289-3.721,3.149-3.721
		c0.952,0,1.816,0.469,2.388,1.245V475.368z M357.1,480.012c-0.396-0.615-1.245-1.143-2.124-1.143c-1.421,0-2.27,1.172-2.27,2.739
		s0.85,2.725,2.27,2.725c0.879,0,1.729-0.498,2.124-1.113V480.012z M370.077,481.608c0,2.3-1.304,3.706-3.149,3.706
		c-0.996,0-1.86-0.513-2.388-1.23v1.055h-1.099v-9.771h1.099v3.765c0.571-0.776,1.421-1.245,2.388-1.245
		C368.773,477.888,370.077,479.353,370.077,481.608z M368.935,481.608c0-1.567-0.85-2.739-2.285-2.739
		c-0.864,0-1.728,0.527-2.109,1.143v3.208c0.381,0.615,1.245,1.113,2.109,1.113C368.085,484.333,368.935,483.176,368.935,481.608z
		 M373.988,483.864l-2.358-5.801h-1.186l2.959,7.148l-0.469,1.069c-0.249,0.586-0.571,0.747-1.055,0.747
		c-0.176,0-0.439-0.044-0.601-0.117l-0.176,0.995c0.205,0.059,0.571,0.103,0.806,0.103c0.938-0.015,1.655-0.411,2.08-1.436
		l3.545-8.511h-1.201L373.988,483.864z"/>
</g>
</svg>
